<?xml version="1.0" encoding="UTF-8" standalone="no"?>
<svg
   width="1319"
   height="773"
   viewBox="0 0 1319 773"
   fill="none"
   version="1.1"
   id="svg2321"
   sodipodi:docname="card-penal.svg"
   inkscape:version="1.2.2 (b0a8486541, 2022-12-01)"
   xmlns:inkscape="http://www.inkscape.org/namespaces/inkscape"
   xmlns:sodipodi="http://sodipodi.sourceforge.net/DTD/sodipodi-0.dtd"
   xmlns="http://www.w3.org/2000/svg"
   xmlns:svg="http://www.w3.org/2000/svg">
  <sodipodi:namedview
     id="namedview2323"
     pagecolor="#ffffff"
     bordercolor="#000000"
     borderopacity="0.25"
     inkscape:showpageshadow="2"
     inkscape:pageopacity="0.0"
     inkscape:pagecheckerboard="0"
     inkscape:deskcolor="#d1d1d1"
     showgrid="false"
     inkscape:zoom="0.53935922"
     inkscape:cx="216.92407"
     inkscape:cy="465.36703"
     inkscape:window-width="2496"
     inkscape:window-height="1035"
     inkscape:window-x="30"
     inkscape:window-y="31"
     inkscape:window-maximized="1"
     inkscape:current-layer="svg2321" />
  <rect
     x="0.910645"
     width="1317.12"
     height="773"
     fill="url(#paint0_linear_1_9)"
     id="rect2310" />
  <defs
     id="defs2319">
    <linearGradient
       id="paint0_linear_1_9"
       x1="659.472"
       y1="0"
       x2="659.472"
       y2="773"
       gradientUnits="userSpaceOnUse">
      <stop
         stop-color="#14172A"
         id="stop2314" />
      <stop
         offset="1"
         stop-color="#3D3062"
         id="stop2316"
         style="stop-color:#b3b1c4;stop-opacity:1;" />
    </linearGradient>
  </defs>
  <g
     id="g4285"
     style="fill:#ffffff;fill-opacity:1"
     transform="matrix(1.464716,0,0,1.464716,-302.74047,-181.28449)">
    <g
       id="g2876"
       transform="matrix(5.3786129,0,0,5.3786129,517.85435,243.70532)"
       style="fill:#ffffff;fill-opacity:1">
      <path
         fill-rule="evenodd"
         clip-rule="evenodd"
         d="M 4.02821,17.9612 C 2.79364,17.2557 2,15.933 2,14.4338 c 0,-2.2045 1.85189,-4.0564 4.05647,-4.0564 0.61729,0 1.14638,0.0882 1.5873,0.3528 L 24.6632,0.941839 c 0.7936,-0.440917 1.7636,-0.705511 2.6455,-0.705511 0.97,0 1.8518,0.264594 2.6455,0.705511 L 44.4163,9.31927 c -1.0582,0.70543 -1.8519,1.76363 -2.381,2.99813 L 28.0141,4.20459 c -0.2645,-0.17637 -0.529,-0.17633 -0.7936,-0.17633 -0.2645,0 -0.5291,0.08814 -0.7937,0.17633 L 9.84835,13.7284 c 0,0.2646 0.08816,0.4409 0.08816,0.7054 0,1.7637 -1.14638,3.1747 -2.6455,3.792 -0.08818,0 -0.26452,0.0881 -0.3527,0.0881 H 6.85009 c -0.08818,0 -0.26452,0.0882 -0.3527,0.0882 H 6.40917 c -0.17636,0 -0.26455,0 -0.44091,0 -0.17637,0 -0.35272,0 -0.52908,0 H 5.35096 c -0.08818,0 -0.26452,0 -0.3527,-0.0882 H 4.91004 C 4.64549,18.2258 4.29276,18.1376 4.02821,17.9612 Z M 52.0001,14.4338 c 0,1.2346 -0.5291,2.2928 -1.411,2.9983 v 19.1358 c 0,1.94 -1.0582,3.7037 -2.6455,4.6738 l -14.4621,8.2892 c 0,-1.3227 -0.4409,-2.6455 -1.2346,-3.6155 l 13.7567,-7.9365 c 0.5291,-0.2645 0.7936,-0.7937 0.7936,-1.411 v -18.254 c -1.6755,-0.5291 -2.91,-2.0282 -2.91,-3.8801 0,-0.8818 0.2645,-1.6754 0.7936,-2.3809 0.0882,-0.0881 0.1764,-0.2645 0.2646,-0.3527 0.2645,-0.2646 0.4409,-0.4409 0.7054,-0.6173 0,0 0.0882,0 0.0882,-0.0882 0.0882,-0.0882 0.1764,-0.0882 0.3527,-0.1764 0,0 0.0883,10e-5 0.0883,-0.0881 0.1763,-0.0882 0.2645,-0.0883 0.4409,-0.1764 0.3527,-0.0882 0.7936,-0.1764 1.2345,-0.1764 2.2928,0 4.1447,1.8519 4.1447,4.0564 z m -20.635,35.2734 c 0,0.1764 0,0.441 -0.0882,0.6174 v 0.0882 c -0.3527,1.8518 -1.94,3.3509 -3.9682,3.3509 -1.7637,0 -3.2628,-1.1464 -3.7919,-2.7337 L 6.76193,41.3298 c -1.67549,-0.97 -2.6455,-2.7336 -2.6455,-4.6736 v -16.314 c 0.61728,0.1764 1.32276,0.3527 1.94004,0.3527 0.61729,0 1.23457,-0.0882 1.76367,-0.2645 v 16.2258 c 0,0.6172 0.3527,1.1463 0.79362,1.4109 l 15.69664,9.0828 c 0.7055,-0.8818 1.8519,-1.4109 3.0864,-1.4109 1.3228,0 2.4692,0.6173 3.2628,1.6755 0,0 0,0 0,0.0882 0.0882,0.0881 0.0882,0.1764 0.1764,0.2646 0,0 0,0.0881 0.0882,0.0881 0,0.0882 0.0882,0.1763 0.0882,0.1763 0,0 0,0.0883 0.0882,0.0883 0,0.0882 0.0882,0.1763 0.0882,0.1763 0,0.0882 -10e-5,0.0882 0.0881,0.1764 0,0.0881 0.0882,0.0882 0.0882,0.1764 0,0.0882 0,0.0881 0.0882,0.1763 0,0.0882 0,0.0883 0,0.1764 0,0.0882 0,0.1763 0,0.2645 0,0.0882 0,0.0883 0,0.1765 -0.0882,0 -0.0882,0.0881 -0.0882,0.2644 z"
         fill="#6d7a99"
         id="path25"
         style="fill:#ffffff;fill-opacity:1" />
      <g
         id="g956"
         style="fill:#ffffff;fill-opacity:1">
        <g
           id="g246"
           transform="matrix(0.06974277,0,0,0.06974277,12.48463,12.318161)"
           style="display:inline;fill:#ffffff;fill-opacity:1">
	<path
   d="m 150.203,239.389 c 9.691,0 17.576,-7.884 17.576,-17.575 0,-9.691 -7.884,-17.576 -17.576,-17.576 -9.691,0 -17.575,7.885 -17.575,17.576 0,9.691 7.884,17.575 17.575,17.575 z m 0,-22.151 c 2.523,0 4.576,2.053 4.576,4.576 0,2.523 -2.053,4.575 -4.576,4.575 -2.523,0 -4.575,-2.052 -4.575,-4.575 0,-2.523 2.052,-4.576 4.575,-4.576 z"
   id="path240"
   style="fill:#ffffff;fill-opacity:1" />

	<path
   d="m 221.814,132.628 c -9.691,0 -17.575,7.885 -17.575,17.576 0,9.691 7.884,17.575 17.575,17.575 9.691,0 17.576,-7.884 17.576,-17.575 0,-9.691 -7.885,-17.576 -17.576,-17.576 z m 0,22.151 c -2.523,0 -4.575,-2.052 -4.575,-4.575 0,-2.523 2.052,-4.576 4.575,-4.576 2.523,0 4.576,2.053 4.576,4.576 0,2.523 -2.054,4.575 -4.576,4.575 z"
   id="path242"
   style="fill:#ffffff;fill-opacity:1" />

	<path
   d="m 445.517,110.867 c 0,-6.229 -2.529,-11.878 -6.614,-15.976 C 435.295,69.634 423.088,46.347 404.306,29.097 384.767,11.153 359.285,0.837 332.551,0.05 308.52,-0.656 285.456,6.205 265.833,19.889 c -0.064,0.045 -0.128,0.092 -0.192,0.139 -3.069,2.127 -6.599,3.551 -10.211,4.121 l -52.467,8.229 C 188.371,34.672 177.78,47.052 177.78,61.814 v 42.554 h -4.562 c -2.709,-7.872 -10.17,-13.552 -18.95,-13.552 -8.78,0 -16.241,5.68 -18.949,13.552 h -16.774 c -7.818,0 -14.178,6.36 -14.178,14.178 v 16.774 c -7.872,2.709 -13.552,10.17 -13.552,18.95 0,8.78 5.68,16.241 13.552,18.949 v 4.562 H 61.813 c -14.762,0 -27.142,10.591 -29.436,25.185 l -8.229,52.459 c -0.569,3.613 -1.99,7.137 -4.112,10.204 -0.051,0.067 -0.1,0.135 -0.148,0.204 -13.684,19.624 -20.544,42.695 -19.839,66.718 0.787,26.734 11.103,52.217 29.047,71.755 17.25,18.783 40.537,30.989 65.794,34.597 4.098,4.085 9.747,6.614 15.976,6.614 6.222,0 11.865,-2.524 15.962,-6.6 54.278,-7.819 94.902,-54.55 94.902,-109.713 0,-26.014 -12.552,-54.214 -25.795,-72.207 0.848,-2.338 1.127,-4.877 0.73,-7.425 l -7.311,-46.608 c -2.294,-14.592 -14.673,-25.183 -29.436,-25.183 h -42.553 v -4.562 c 7.872,-2.709 13.552,-10.17 13.552,-18.949 0,-8.779 -5.68,-16.241 -13.552,-18.95 v -16.774 c 0,-0.65 0.528,-1.178 1.178,-1.178 h 16.774 c 2.709,7.872 10.17,13.552 18.949,13.552 8.779,0 16.241,-5.68 18.95,-13.552 h 4.562 v 42.553 c 0,14.762 10.591,27.142 25.185,29.436 l 46.613,7.311 c 0.783,0.122 1.566,0.182 2.344,0.182 1.752,0 3.471,-0.314 5.089,-0.902 17.994,13.238 46.185,25.784 72.192,25.784 55.163,0 101.894,-40.624 109.714,-94.902 4.078,-4.098 6.602,-9.741 6.602,-15.963 z M 181.895,329.205 c 0,39.165 -31.863,71.029 -71.028,71.029 -39.165,0 -71.028,-31.863 -71.028,-71.029 0,-39.165 31.863,-71.028 71.028,-71.028 39.165,0 71.028,31.863 71.028,71.028 z m -71.028,103.312 c -5.316,0 -9.642,-4.325 -9.642,-9.642 0,-5.317 4.325,-9.642 9.642,-9.642 5.317,0 9.642,4.325 9.642,9.642 0,5.317 -4.326,9.642 -9.642,9.642 z m 22.583,-8.096 c 0.035,-0.511 0.059,-1.026 0.059,-1.546 0,-4.36 -1.239,-8.436 -3.383,-11.894 37.079,-8.732 64.77,-42.07 64.77,-81.776 0,-26.75 -12.58,-50.602 -32.117,-66.002 5.07,0.872 10.104,1.888 14.878,3.083 1.382,0.401 2.8,0.605 4.216,0.605 1.587,0 3.15,-0.256 4.634,-0.743 11.262,15.909 22.226,40.812 22.226,63.055 -0.002,45.774 -31.693,84.948 -75.283,95.218 z m 43.063,-219.441 7.309,46.599 c 0.097,0.623 -0.059,1.164 -0.485,1.634 -0.527,0.587 -1.28,0.824 -2.086,0.581 -0.099,-0.03 -0.199,-0.058 -0.299,-0.083 -23.338,-5.863 -67.957,-8.534 -70.086,-8.534 -46.333,0 -84.028,37.695 -84.028,84.028 0,39.708 27.694,73.047 64.774,81.777 -2.145,3.459 -3.388,7.533 -3.388,11.893 0,0.53 0.025,1.054 0.061,1.575 C 69.28,420.004 51.946,409.968 38.67,395.513 22.839,378.275 13.738,355.78 13.043,332.169 12.422,311 18.449,290.674 30.474,273.379 c 0.037,-0.05 0.074,-0.101 0.109,-0.152 l 0.001,0.001 c 3.306,-4.711 5.52,-10.167 6.406,-15.784 l 8.229,-52.462 c 1.294,-8.229 8.272,-14.202 16.594,-14.202 h 98.107 c 8.321,0.001 15.3,5.973 16.593,14.2 z m -65.646,-43.659 c -3.889,0 -7.052,-3.163 -7.052,-7.052 0,-3.889 3.164,-7.052 7.052,-7.052 3.888,0 7.052,3.164 7.052,7.052 0,3.888 -3.164,7.052 -7.052,7.052 z m 43.402,-43.402 c -3.888,0 -7.052,-3.163 -7.052,-7.052 0,-3.889 3.164,-7.052 7.052,-7.052 3.889,0 7.052,3.164 7.052,7.052 0,3.888 -3.164,7.052 -7.052,7.052 z m 278.248,-7.052 c 0,5.316 -4.325,9.642 -9.642,9.642 -5.317,0 -9.642,-4.325 -9.642,-9.642 0,-5.317 4.325,-9.642 9.642,-9.642 5.317,0 9.642,4.326 9.642,9.642 z m -180.932,72.956 -46.603,-7.31 c -8.229,-1.294 -14.202,-8.272 -14.202,-16.594 V 61.813 c 0,-8.321 5.973,-15.3 14.2,-16.594 l 52.47,-8.23 c 5.612,-0.885 11.068,-3.099 15.779,-6.405 l -10e-4,-0.002 c 0.047,-0.033 0.095,-0.067 0.141,-0.101 17.297,-12.03 37.636,-18.059 58.8,-17.438 23.611,0.695 46.107,9.797 63.344,25.627 14.456,13.276 24.491,30.611 28.937,49.615 -0.521,-0.036 -1.045,-0.061 -1.575,-0.061 -4.361,0 -8.434,1.245 -11.893,3.39 -8.73,-37.082 -42.069,-64.777 -81.778,-64.777 -46.333,0 -84.028,37.695 -84.028,84.029 0,2.128 2.671,46.75 8.534,70.085 0.025,0.101 0.053,0.201 0.083,0.3 0.065,0.214 0.098,0.422 0.098,0.62 0,0.544 -0.247,1.079 -0.703,1.488 -0.445,0.405 -0.987,0.561 -1.603,0.464 z m 6.592,-72.956 c 0,-39.165 31.863,-71.029 71.028,-71.029 39.166,0 71.029,31.863 71.029,71.029 0,39.165 -31.863,71.028 -71.029,71.028 -39.165,0 -71.028,-31.863 -71.028,-71.028 z m 71.026,97.864 c -22.243,0 -47.147,-10.964 -63.056,-22.226 0.487,-1.484 0.744,-3.047 0.744,-4.633 0,-1.417 -0.204,-2.834 -0.605,-4.217 -1.195,-4.774 -2.213,-9.809 -3.085,-14.88 15.4,19.539 39.253,32.12 66.004,32.12 39.707,0 73.046,-27.693 81.777,-64.773 3.459,2.144 7.533,3.386 11.894,3.386 0.52,0 1.034,-0.024 1.546,-0.059 -10.271,43.592 -49.445,75.282 -95.219,75.282 z"
   id="path244"
   style="fill:#ffffff;fill-opacity:1" />

</g>
      </g>
    </g>
  </g>
</svg>
