<?xml version="1.0" encoding="UTF-8" standalone="no"?>
<svg
   width="1319"
   height="773"
   viewBox="0 0 1319 773"
   fill="none"
   version="1.1"
   id="svg2321"
   sodipodi:docname="card-processo-penal.svg"
   inkscape:version="1.2.2 (b0a8486541, 2022-12-01)"
   xml:space="preserve"
   xmlns:inkscape="http://www.inkscape.org/namespaces/inkscape"
   xmlns:sodipodi="http://sodipodi.sourceforge.net/DTD/sodipodi-0.dtd"
   xmlns="http://www.w3.org/2000/svg"
   xmlns:svg="http://www.w3.org/2000/svg"><sodipodi:namedview
     id="namedview2323"
     pagecolor="#ffffff"
     bordercolor="#000000"
     borderopacity="0.25"
     inkscape:showpageshadow="2"
     inkscape:pageopacity="0.0"
     inkscape:pagecheckerboard="0"
     inkscape:deskcolor="#d1d1d1"
     showgrid="false"
     inkscape:zoom="0.51230419"
     inkscape:cx="191.2926"
     inkscape:cy="392.34502"
     inkscape:window-width="1116"
     inkscape:window-height="1035"
     inkscape:window-x="1409"
     inkscape:window-y="31"
     inkscape:window-maximized="1"
     inkscape:current-layer="svg2321"><inkscape:page
       x="0"
       y="0"
       width="1319"
       height="773"
       id="page4715" /><inkscape:page
       x="1329"
       y="0"
       width="800"
       height="800"
       id="page4717" /></sodipodi:namedview><rect
     x="0.910645"
     width="1317.12"
     height="773"
     fill="url(#paint0_linear_1_9)"
     id="rect2310" /><defs
     id="defs2319"><linearGradient
       id="paint0_linear_1_9"
       x1="659.472"
       y1="0"
       x2="659.472"
       y2="773"
       gradientUnits="userSpaceOnUse"><stop
         stop-color="#14172A"
         id="stop2314" /><stop
         offset="1"
         stop-color="#3D3062"
         id="stop2316"
         style="stop-color:#b3b1c4;stop-opacity:1;" /></linearGradient></defs><path
     fill-rule="evenodd"
     clip-rule="evenodd"
     d="m 487.50388,317.17545 c -9.72611,-5.55803 -15.97852,-15.97845 -15.97852,-27.78936 0,-17.36736 14.58945,-31.95689 31.95744,-31.95689 4.8631,0 9.03134,0.69486 12.50497,2.77941 l 134.08146,-77.11408 c 6.25209,-3.47361 13.89389,-5.55811 20.84162,-5.55811 7.6418,0 14.58874,2.0845 20.84162,5.55811 l 113.93446,65.99858 c -8.33665,5.55747 -14.58953,13.89412 -18.75785,23.61969 L 676.46809,208.79894 c -2.08377,-1.38947 -4.16753,-1.38915 -6.25209,-1.38915 -2.08377,0 -4.16832,0.69438 -6.25288,1.38915 l -130.60736,75.02991 c 0,2.08456 0.69454,3.47347 0.69454,5.55724 0,13.89468 -9.03134,25.01074 -20.84162,29.87391 -0.69469,0 -2.08393,0.69407 -2.77862,0.69407 h -0.69501 c -0.69469,0 -2.08392,0.69485 -2.77862,0.69485 h -0.69501 c -1.38939,0 -2.08416,0 -3.47355,0 -1.38947,0 -2.77878,0 -4.16817,0 h -0.69501 c -0.69469,0 -2.08392,0 -2.77862,-0.69485 h -0.69501 c -2.08416,-0.69407 -4.86301,-1.38892 -6.94718,-2.77862 z m 377.92929,-27.78936 c 0,9.72636 -4.16833,18.063 -11.11606,23.62103 v 150.75452 c 0,15.28359 -8.33665,29.17827 -20.84162,36.82085 l -113.93445,65.30348 c 0,-10.42041 -3.47347,-20.84162 -9.72635,-28.48341 L 818.1919,474.8777 c 4.16832,-2.08377 6.25209,-6.25288 6.25209,-11.11606 V 319.95407 c -13.19982,-4.16833 -22.92539,-15.97845 -22.92539,-30.56798 0,-6.94694 2.08377,-13.19903 6.2521,-18.75706 0.69485,-0.69407 1.3897,-2.08377 2.08455,-2.77862 2.08377,-2.08456 3.47347,-3.47347 5.55724,-4.86318 0,0 0.69485,0 0.69485,-0.69485 0.69486,-0.69485 1.38971,-0.69485 2.77862,-1.3897 0,0 0.69564,7.8e-4 0.69564,-0.69407 1.38892,-0.69485 2.08377,-0.69564 3.47348,-1.3897 2.77862,-0.69485 6.25209,-1.38971 9.72556,-1.38971 18.063,0 32.65253,14.58953 32.65253,31.95689 z m -162.56543,277.8888 c 0,1.3897 0,3.47426 -0.69485,4.86396 v 0.69486 c -2.77862,14.58874 -15.28359,26.39886 -31.26204,26.39886 -13.89467,0 -25.70479,-9.0315 -29.87312,-21.53648 L 509.04051,501.27656 c -13.19974,-7.6418 -20.84162,-21.53569 -20.84162,-36.81928 V 335.9333 c 4.86302,1.3897 10.42089,2.77862 15.28391,2.77862 4.8631,0 9.72612,-0.69485 13.89444,-2.08377 v 127.82913 c 0,4.86239 2.77862,9.03071 6.25225,11.11527 l 123.66033,71.55557 c 5.55803,-6.94694 14.58953,-11.11527 24.3151,-11.11527 10.4212,0 19.4527,4.86318 25.70479,13.19983 0,0 0,0 0,0.69485 0.69486,0.69406 0.69486,1.3897 1.38971,2.08456 0,0 0,0.69406 0.69485,0.69406 0,0.69485 0.69485,1.38892 0.69485,1.38892 0,0 0,0.69564 0.69485,0.69564 0,0.69485 0.69486,1.38891 0.69486,1.38891 0,0.69485 -7.9e-4,0.69485 0.69406,1.38971 0,0.69406 0.69485,0.69485 0.69485,1.3897 0,0.69485 0,0.69406 0.69485,1.38892 0,0.69485 0,0.69564 0,1.3897 0,0.69485 0,1.38892 0,2.08377 0,0.69485 0,0.69564 0,1.39049 -0.69485,0 -0.69485,0.69406 -0.69485,2.08298 z"
     fill="#6d7a99"
     id="path25"
     style="fill:#ffffff;fill-opacity:1;stroke-width:7.87814" /><g
     id="g956"
     style="fill:#ffffff;fill-opacity:1"
     transform="matrix(5.8594609,0,0,5.8594609,464.67572,186.88921)"><g
       id="g246"
       transform="matrix(0.06974277,0,0,0.06974277,12.48463,12.318161)"
       style="display:inline;fill:#ffffff;fill-opacity:1">
	<path
   d="m 150.203,239.389 c 9.691,0 17.576,-7.884 17.576,-17.575 0,-9.691 -7.884,-17.576 -17.576,-17.576 -9.691,0 -17.575,7.885 -17.575,17.576 0,9.691 7.884,17.575 17.575,17.575 z m 0,-22.151 c 2.523,0 4.576,2.053 4.576,4.576 0,2.523 -2.053,4.575 -4.576,4.575 -2.523,0 -4.575,-2.052 -4.575,-4.575 0,-2.523 2.052,-4.576 4.575,-4.576 z"
   id="path240"
   style="fill:#ffffff;fill-opacity:1" />
	<path
   d="m 221.814,132.628 c -9.691,0 -17.575,7.885 -17.575,17.576 0,9.691 7.884,17.575 17.575,17.575 9.691,0 17.576,-7.884 17.576,-17.575 0,-9.691 -7.885,-17.576 -17.576,-17.576 z m 0,22.151 c -2.523,0 -4.575,-2.052 -4.575,-4.575 0,-2.523 2.052,-4.576 4.575,-4.576 2.523,0 4.576,2.053 4.576,4.576 0,2.523 -2.054,4.575 -4.576,4.575 z"
   id="path242"
   style="fill:#ffffff;fill-opacity:1" />
	<path
   d="m 445.517,110.867 c 0,-6.229 -2.529,-11.878 -6.614,-15.976 C 435.295,69.634 423.088,46.347 404.306,29.097 384.767,11.153 359.285,0.837 332.551,0.05 308.52,-0.656 285.456,6.205 265.833,19.889 c -0.064,0.045 -0.128,0.092 -0.192,0.139 -3.069,2.127 -6.599,3.551 -10.211,4.121 l -52.467,8.229 C 188.371,34.672 177.78,47.052 177.78,61.814 v 42.554 h -4.562 c -2.709,-7.872 -10.17,-13.552 -18.95,-13.552 -8.78,0 -16.241,5.68 -18.949,13.552 h -16.774 c -7.818,0 -14.178,6.36 -14.178,14.178 v 16.774 c -7.872,2.709 -13.552,10.17 -13.552,18.95 0,8.78 5.68,16.241 13.552,18.949 v 4.562 H 61.813 c -14.762,0 -27.142,10.591 -29.436,25.185 l -8.229,52.459 c -0.569,3.613 -1.99,7.137 -4.112,10.204 -0.051,0.067 -0.1,0.135 -0.148,0.204 -13.684,19.624 -20.544,42.695 -19.839,66.718 0.787,26.734 11.103,52.217 29.047,71.755 17.25,18.783 40.537,30.989 65.794,34.597 4.098,4.085 9.747,6.614 15.976,6.614 6.222,0 11.865,-2.524 15.962,-6.6 54.278,-7.819 94.902,-54.55 94.902,-109.713 0,-26.014 -12.552,-54.214 -25.795,-72.207 0.848,-2.338 1.127,-4.877 0.73,-7.425 l -7.311,-46.608 c -2.294,-14.592 -14.673,-25.183 -29.436,-25.183 h -42.553 v -4.562 c 7.872,-2.709 13.552,-10.17 13.552,-18.949 0,-8.779 -5.68,-16.241 -13.552,-18.95 v -16.774 c 0,-0.65 0.528,-1.178 1.178,-1.178 h 16.774 c 2.709,7.872 10.17,13.552 18.949,13.552 8.779,0 16.241,-5.68 18.95,-13.552 h 4.562 v 42.553 c 0,14.762 10.591,27.142 25.185,29.436 l 46.613,7.311 c 0.783,0.122 1.566,0.182 2.344,0.182 1.752,0 3.471,-0.314 5.089,-0.902 17.994,13.238 46.185,25.784 72.192,25.784 55.163,0 101.894,-40.624 109.714,-94.902 4.078,-4.098 6.602,-9.741 6.602,-15.963 z M 181.895,329.205 c 0,39.165 -31.863,71.029 -71.028,71.029 -39.165,0 -71.028,-31.863 -71.028,-71.029 0,-39.165 31.863,-71.028 71.028,-71.028 39.165,0 71.028,31.863 71.028,71.028 z m -71.028,103.312 c -5.316,0 -9.642,-4.325 -9.642,-9.642 0,-5.317 4.325,-9.642 9.642,-9.642 5.317,0 9.642,4.325 9.642,9.642 0,5.317 -4.326,9.642 -9.642,9.642 z m 22.583,-8.096 c 0.035,-0.511 0.059,-1.026 0.059,-1.546 0,-4.36 -1.239,-8.436 -3.383,-11.894 37.079,-8.732 64.77,-42.07 64.77,-81.776 0,-26.75 -12.58,-50.602 -32.117,-66.002 5.07,0.872 10.104,1.888 14.878,3.083 1.382,0.401 2.8,0.605 4.216,0.605 1.587,0 3.15,-0.256 4.634,-0.743 11.262,15.909 22.226,40.812 22.226,63.055 -0.002,45.774 -31.693,84.948 -75.283,95.218 z m 43.063,-219.441 7.309,46.599 c 0.097,0.623 -0.059,1.164 -0.485,1.634 -0.527,0.587 -1.28,0.824 -2.086,0.581 -0.099,-0.03 -0.199,-0.058 -0.299,-0.083 -23.338,-5.863 -67.957,-8.534 -70.086,-8.534 -46.333,0 -84.028,37.695 -84.028,84.028 0,39.708 27.694,73.047 64.774,81.777 -2.145,3.459 -3.388,7.533 -3.388,11.893 0,0.53 0.025,1.054 0.061,1.575 C 69.28,420.004 51.946,409.968 38.67,395.513 22.839,378.275 13.738,355.78 13.043,332.169 12.422,311 18.449,290.674 30.474,273.379 c 0.037,-0.05 0.074,-0.101 0.109,-0.152 l 0.001,0.001 c 3.306,-4.711 5.52,-10.167 6.406,-15.784 l 8.229,-52.462 c 1.294,-8.229 8.272,-14.202 16.594,-14.202 h 98.107 c 8.321,0.001 15.3,5.973 16.593,14.2 z m -65.646,-43.659 c -3.889,0 -7.052,-3.163 -7.052,-7.052 0,-3.889 3.164,-7.052 7.052,-7.052 3.888,0 7.052,3.164 7.052,7.052 0,3.888 -3.164,7.052 -7.052,7.052 z m 43.402,-43.402 c -3.888,0 -7.052,-3.163 -7.052,-7.052 0,-3.889 3.164,-7.052 7.052,-7.052 3.889,0 7.052,3.164 7.052,7.052 0,3.888 -3.164,7.052 -7.052,7.052 z m 278.248,-7.052 c 0,5.316 -4.325,9.642 -9.642,9.642 -5.317,0 -9.642,-4.325 -9.642,-9.642 0,-5.317 4.325,-9.642 9.642,-9.642 5.317,0 9.642,4.326 9.642,9.642 z m -180.932,72.956 -46.603,-7.31 c -8.229,-1.294 -14.202,-8.272 -14.202,-16.594 V 61.813 c 0,-8.321 5.973,-15.3 14.2,-16.594 l 52.47,-8.23 c 5.612,-0.885 11.068,-3.099 15.779,-6.405 l -10e-4,-0.002 c 0.047,-0.033 0.095,-0.067 0.141,-0.101 17.297,-12.03 37.636,-18.059 58.8,-17.438 23.611,0.695 46.107,9.797 63.344,25.627 14.456,13.276 24.491,30.611 28.937,49.615 -0.521,-0.036 -1.045,-0.061 -1.575,-0.061 -4.361,0 -8.434,1.245 -11.893,3.39 -8.73,-37.082 -42.069,-64.777 -81.778,-64.777 -46.333,0 -84.028,37.695 -84.028,84.029 0,2.128 2.671,46.75 8.534,70.085 0.025,0.101 0.053,0.201 0.083,0.3 0.065,0.214 0.098,0.422 0.098,0.62 0,0.544 -0.247,1.079 -0.703,1.488 -0.445,0.405 -0.987,0.561 -1.603,0.464 z m 6.592,-72.956 c 0,-39.165 31.863,-71.029 71.028,-71.029 39.166,0 71.029,31.863 71.029,71.029 0,39.165 -31.863,71.028 -71.029,71.028 -39.165,0 -71.028,-31.863 -71.028,-71.028 z m 71.026,97.864 c -22.243,0 -47.147,-10.964 -63.056,-22.226 0.487,-1.484 0.744,-3.047 0.744,-4.633 0,-1.417 -0.204,-2.834 -0.605,-4.217 -1.195,-4.774 -2.213,-9.809 -3.085,-14.88 15.4,19.539 39.253,32.12 66.004,32.12 39.707,0 73.046,-27.693 81.777,-64.773 3.459,2.144 7.533,3.386 11.894,3.386 0.52,0 1.034,-0.024 1.546,-0.059 -10.271,43.592 -49.445,75.282 -95.219,75.282 z"
   id="path244"
   style="fill:#ffffff;fill-opacity:1" />
</g></g><g
     id="g4706"
     transform="matrix(0.32053843,0,0,0.32053843,643.60722,345.22246)"
     style="fill:#ffffff;fill-opacity:0.981348">
	<path
   class="st0"
   d="m 429.75,56.692 c -5.641,-4 -12.891,-5.031 -19.422,-2.734 l -242.875,85 c -30.625,-1.453 -51.484,-9.844 -65.859,-19.203 -4.328,-2.813 -5.266,-4.469 -5.266,-4.469 -2.594,-2.594 -3.594,-6.188 -2.859,-9.891 0.75,-3.703 3.391,-6.734 6.953,-7.984 L 317.781,21.348 c 3.266,-1.156 6.891,-0.641 9.703,1.359 0.25,0.188 0.469,0.438 0.703,0.625 l 15.906,-5.75 C 343.109,12.129 340.155,7.191 335.546,3.941 329.905,-0.075 322.655,-1.09 316.124,1.191 l -228.578,80 c -8.563,3 -14.297,11.094 -14.297,20.156 v 5.578 352.312 c 0,0 15.063,49 94.203,52.766 L 410.14,427.065 c 17.125,-6 28.609,-22.171 28.609,-40.328 V 74.114 c 10e-4,-6.922 -3.358,-13.422 -8.999,-17.422 z"
   id="path4700"
   style="fill:#ffffff;fill-opacity:0.981348" />
	<polygon
   class="st0"
   points="123.516,106.254 133.156,110.848 352.766,33.973 343.109,29.379 "
   id="polygon4702"
   style="fill:#ffffff;fill-opacity:0.981348" />
	<polygon
   class="st0"
   points="159.672,123.348 379,46.567 369.406,41.958 150.031,118.754 "
   id="polygon4704"
   style="fill:#ffffff;fill-opacity:0.981348" />
</g></svg>
