<?xml version="1.0" encoding="UTF-8" standalone="no"?>
<svg
   version="1.1"
   width="3.7688665in"
   height="3.7688665in"
   viewBox="0 0 271.35891 271.35891"
   id="svg7567"
   sodipodi:docname="corel daniel pontes.cdr"
   xmlns:inkscape="http://www.inkscape.org/namespaces/inkscape"
   xmlns:sodipodi="http://sodipodi.sourceforge.net/DTD/sodipodi-0.dtd"
   xmlns="http://www.w3.org/2000/svg"
   xmlns:svg="http://www.w3.org/2000/svg">
  <defs
     id="defs7571" />
  <sodipodi:namedview
     id="namedview7569"
     pagecolor="#ffffff"
     bordercolor="#000000"
     borderopacity="0.25"
     inkscape:showpageshadow="2"
     inkscape:pageopacity="0.0"
     inkscape:pagecheckerboard="0"
     inkscape:deskcolor="#d1d1d1"
     inkscape:document-units="in"
     showgrid="false" />
  <g
     id="Layer1029"
     transform="translate(-147.78509,-147.78509)">
    <g
       id="Layer1030">
      <path
         d="m 296.761,291.6468 c -1.3008,4.8214 -3.6767,9.6676 -7.0287,13.4124 l 4.1307,1.5334 c 7.1724,-6.603 10.4243,-16.472 10.4243,-26.0561 0,-4.2926 -0.7634,-8.7312 -2.4005,-12.7219 -1.3166,-3.2103 -3.2342,-6.0482 -5.753,-8.5133 -2.807,-2.7477 -6.3917,-4.9279 -10.7521,-6.5407 -4.3604,-1.6125 -9.5873,-2.4191 -15.6797,-2.4191 h -15.5902 c 1.732,0.1194 3.1659,0.8364 4.3007,2.1504 1.1346,1.3141 1.792,2.7468 1.792,4.3007 v 51.0716 c 0,1.5528 -0.5824,2.9866 -1.7473,4.3007 -1.1648,1.3141 -2.6134,2.031 -4.3454,2.1505 h 18.995 c 6.3066,0 11.9012,-1.4382 17.1641,-4.916 l -3.1578,-1.7918 c -2.6267,2.225 -5.3731,3.8109 -8.7765,4.6081 -3.0016,0.7025 -7.4813,0.983 -10.3819,-0.4093 -0.7463,-0.3581 -1.3741,-0.8661 -1.8814,-1.523 -0.5077,-0.6569 -0.7617,-1.4636 -0.7617,-2.4192 v -51.0716 c 0,-1.3738 0.4035,-2.5387 1.2096,-3.4943 0.8064,-0.9556 1.9862,-1.4338 3.5393,-1.4338 5.3758,0 9.8557,0.7022 13.4397,2.1057 3.5838,1.4036 6.4812,3.3901 8.6911,5.9582 2.2818,2.6521 3.8213,5.7701 4.7042,9.1394 0.9236,3.5243 1.3885,7.4068 1.3885,11.6477 0,3.5243 -0.5079,7.1684 -1.523,10.9313 z"
         style="fill:#000000;fill-rule:evenodd"
         id="path7464" />
      <path
         d="m 277.5735,270.4618 c 0.5085,0.8064 0.7631,1.8668 0.7631,3.1808 v 37.0853 c 1.9086,-0.4866 3.6521,-1.2578 5.3394,-2.3453 v -5.441 c 0.8898,1.3738 1.9386,2.4789 3.1465,3.3153 0.3501,0.2425 0.7016,0.4684 1.0546,0.6783 0.8641,0.514 1.7363,0.9299 2.6163,1.2479 0.3489,0.1262 0.6912,0.2405 1.0275,0.3426 0.8586,0.2618 1.6763,0.4462 2.4529,0.5536 1.0806,0.1492 1.9069,0.224 2.479,0.224 3.5598,0 6.6904,-0.6272 9.3921,-1.8818 2.7015,-1.2543 4.9741,-2.8821 6.8175,-4.8831 1.8433,-2.001 3.242,-4.2857 4.1953,-6.8544 0.9536,-2.5684 1.4304,-5.1968 1.4304,-7.8847 0,-2.6281 -0.4609,-5.1668 -1.3828,-7.616 -0.9218,-2.4489 -2.3202,-4.6442 -4.1953,-6.5854 -1.8752,-1.9415 -4.243,-3.4946 -7.1035,-4.6591 -0.8133,-0.3314 -1.6702,-0.6154 -2.5707,-0.8523 v 2.2065 c 0.1114,0.0551 0.2214,0.1111 0.3299,0.1688 2.1929,1.1649 3.9252,2.6732 5.1966,4.5249 1.2713,1.8515 2.1611,3.9272 2.67,6.2269 0.5085,2.3 0.7625,4.6144 0.7625,6.9442 0,2.3294 -0.3813,4.6591 -1.1441,6.9888 -0.7625,2.3294 -1.8596,4.4052 -3.2896,6.2269 -1.4301,1.8221 -3.21,3.3154 -5.3395,4.4802 -2.1294,1.1646 -4.561,1.747 -7.2945,1.747 -0.5755,0 -1.2205,-0.0796 -1.9351,-0.239 -0.3112,-0.0695 -0.6356,-0.1541 -0.973,-0.2536 -1.0003,-0.2956 -1.988,-0.736 -2.9626,-1.3213 -0.1091,-0.0656 -0.2182,-0.1328 -0.327,-0.2021 -1.0803,-0.6869 -2.0818,-1.5978 -3.0034,-2.7326 -0.9218,-1.1351 -1.6052,-2.5089 -2.05,-4.1217 v -25.0878 c 0,-1.314 0.3657,-2.4789 1.0964,-3.4942 0.7311,-1.0157 1.9228,-1.5234 3.5757,-1.5234 h 6.6743 l 0.1861,0.004 v -1.4376 h -23.3557 c 0.5083,0.0597 1.1279,0.1942 1.859,0.4032 0.7311,0.2089 1.4304,0.5377 2.0979,0.9856 0.6673,0.4479 1.2552,1.0751 1.7638,1.8815 z"
         style="fill:#000000;fill-rule:evenodd"
         id="path7466" />
      <path
         d="m 278.3366,324.7143 c 0,1.314 -0.207,2.3744 -0.62,3.1808 -0.413,0.8064 -0.9377,1.4486 -1.5732,1.9262 -0.6358,0.478 -1.3352,0.8064 -2.0977,0.9857 -0.7628,0.1792 -1.4939,0.2987 -2.1929,0.3584 h 18.307 c -0.7628,-0.0597 -1.5257,-0.1792 -2.2885,-0.3584 -0.7625,-0.1793 -1.4621,-0.5077 -2.0976,-0.9857 -0.6356,-0.4776 -1.1441,-1.1198 -1.5257,-1.9262 -0.3815,-0.8064 -0.572,-1.8668 -0.572,-3.1808 v -10.534 c -1.7438,0.5663 -3.524,0.9675 -5.3394,1.2238 z"
         style="fill:#000000;fill-rule:evenodd"
         id="path7468" />
    </g>
    <path
       d="m 334.154,239.8924 c -3.1816,-1.5056 -24.7991,-11.4697 -43.7461,-13.3511 0.1393,-0.4267 0.2343,-0.8862 0.2805,-1.377 20.7289,2.1083 44.4407,13.6378 44.516,13.6738 l 0.4032,0.1943 v 2.8182 c -0.4788,-0.0916 -0.9672,-0.1296 -1.4536,-0.1126 z m -56.0301,-13.2916 c -18.8045,2.0199 -40.0262,11.8008 -43.1757,13.2916 v 1.6031 c -0.4479,-0.3399 -0.9375,-0.6224 -1.4536,-0.8397 v -1.6234 l 0.4032,-0.1943 c 0.0743,-0.0358 23.3382,-11.3463 43.9187,-13.6101 0.0593,0.4913 0.1635,0.9488 0.3074,1.3728 z m -43.1757,55.836 v 6.8378 c 0,21.1447 11.9521,37.7271 30.0759,47.74 l 19.524,10.7824 19.5228,-10.7824 c 18.124,-10.01 30.0831,-26.5941 30.0831,-47.7383 v -9.2703 c 0.4857,0.0326 0.9741,0.009 1.4536,-0.0703 v 9.3406 c 0,21.6442 -12.2571,38.7024 -30.8155,48.9529 l -20.2494,11.1835 c -6.6746,-3.8011 -13.5069,-7.4654 -20.2395,-11.1835 -18.5586,-10.2523 -30.8086,-27.3104 -30.8086,-48.9546 v -6.6854 c 0.4889,0.005 0.9773,-0.046 1.4536,-0.1524 z"
       style="fill:#000000;fill-rule:evenodd"
       id="path7471" />
    <g
       id="Layer1031">
      <path
         d="m 224.4328,281.1877 c 3.1659,3.686 7.1122,5.7294 10.3156,5.9407 -2.8162,0.6948 -7.3431,-0.1976 -10.3156,-5.9407 z m -3.6456,-1.3998 v 1.7388 c 5.1855,0 4.1956,6.7991 13.6396,6.7991 9.4465,0 8.4566,-6.7991 13.6425,-6.7991 v -1.7388 z"
         style="fill:#000000;fill-rule:evenodd"
         id="path7473" />
      <path
         d="m 234.9077,278.4256 h -0.9597 v -37.1098 l -8.1077,37.1098 h -1.0007 l 8.6019,-39.3709 h 1.9718 l 8.6019,39.3709 h -1.0011 l -8.1064,-37.1086 z"
         style="fill:#000000;fill-rule:evenodd"
         id="path7475" />
    </g>
    <path
       d="m 311.9982,341.9733 c -1.7475,1.2049 -3.4436,2.3733 -5.1391,3.5433 0.0264,0.0741 0.0516,0.1485 0.0779,0.2229 2.2738,0.1542 4.5482,0.3078 6.8656,0.4643 1.73,-1.1875 3.4673,-2.3795 5.2039,-3.5713 -0.003,-0.0717 -0.007,-0.1426 -0.0102,-0.2129 -2.3442,-0.1494 -4.6886,-0.2996 -6.9981,-0.4463 z"
       style="fill:#000000;fill-rule:evenodd"
       id="path7478" />
    <path
       d="m 306.4454,344.9759 c 1.7339,-1.1836 3.468,-2.3667 5.3118,-3.624 0.615,-2.1603 1.2525,-4.3998 1.9358,-6.8003 -1.8488,1.2677 -3.5786,2.4543 -5.3083,3.6408 -0.804,2.209 -1.4075,4.4517 -1.9393,6.7835 z"
       style="fill:#000000;fill-rule:evenodd"
       id="path7480" />
    <path
       d="m 319.1998,336.8011 c -1.5758,1.3876 -3.261,2.6249 -4.9608,4.2473 2.5816,-0.0754 4.8935,-0.1446 7.1762,-0.2123 1.6507,-1.3842 3.2639,-2.7349 4.8759,-4.0869 -0.0189,-0.0561 -0.0379,-0.1119 -0.0577,-0.1672 -2.3392,0.0729 -4.6797,0.1451 -7.0336,0.2191 z"
       style="fill:#000000;fill-rule:evenodd"
       id="path7482" />
    <path
       d="m 339.9945,308.2026 c -0.6943,2.0384 -1.3701,4.0199 -2.0451,6.0016 0.0505,0.0374 0.101,0.0762 0.1515,0.1136 1.9384,-1.2526 3.8771,-2.5063 5.8463,-3.7786 0.6861,-1.9944 1.3723,-3.9931 2.0592,-5.9915 -0.0458,-0.0541 -0.0915,-0.1084 -0.1372,-0.1625 -1.9667,1.2774 -3.9324,2.555 -5.8747,3.8174 z"
       style="fill:#000000;fill-rule:evenodd"
       id="path7484" />
    <path
       d="m 327.729,329.0108 c 1.2508,-0.16 2.3621,-0.4767 3.4792,-0.7709 3.292,-0.8652 3.301,-0.8565 5.2827,-3.6333 0.5977,-0.8388 1.2934,-1.6147 1.8759,-2.6603 -2.3942,0.6705 -4.6267,1.2959 -6.9246,1.9388 -1.2622,1.7426 -2.4878,3.4338 -3.7132,5.1257 z"
       style="fill:#000000;fill-rule:evenodd"
       id="path7486" />
    <path
       d="m 320.8615,335.1888 c 1.5782,-1.7624 2.9819,-3.3313 4.4071,-4.9239 0.1446,-2.4017 0.282,-4.7077 0.4345,-7.2561 -1.5865,1.7762 -3.0092,3.3678 -4.4143,4.9402 -0.1396,2.3704 -0.2762,4.6849 -0.4273,7.2398 z"
       style="fill:#000000;fill-rule:evenodd"
       id="path7488" />
    <path
       d="m 304.1848,346.2181 c -1.9841,0.8459 -3.848,1.877 -5.8656,2.9406 2.4054,0.5106 4.6477,0.9853 7.0014,1.4845 1.8872,-0.935 3.7689,-1.8671 5.6512,-2.8002 -0.006,-0.0694 -0.0132,-0.1379 -0.02,-0.2075 -2.2567,-0.4722 -4.5133,-0.9448 -6.767,-1.4174 z"
       style="fill:#000000;fill-rule:evenodd"
       id="path7490" />
    <path
       d="m 340.5971,305.7409 c 0.4316,-1.8787 0.8649,-3.7572 1.2936,-5.6371 0.0965,-0.4286 0.001,-0.8237 -0.1894,-1.2222 -0.7918,-1.6522 -1.5552,-3.3183 -2.352,-4.9676 -0.1009,-0.2093 -0.0801,-0.5907 -0.4977,-0.5575 -0.4812,2.0643 -0.9599,4.1209 -1.426,6.1211 1.0099,2.1394 1.9838,4.2042 2.959,6.2694 0.07,-0.002 0.1414,-0.004 0.2125,-0.006 z"
       style="fill:#000000;fill-rule:evenodd"
       id="path7492" />
    <path
       d="m 325.7805,330.6879 c -1.3095,1.545 -2.758,2.9782 -4.0069,4.5897 -0.1377,0.0313 -0.2192,0.0991 -0.1525,0.2752 0.081,-0.0129 0.1658,-0.0265 0.2508,-0.0393 v 0 c 2.2,-0.3701 4.4008,-0.7388 6.6395,-1.1143 1.3999,-1.5783 2.8059,-3.1616 4.2117,-4.7454 -0.0356,-0.0569 -0.072,-0.1136 -0.1084,-0.1715 -2.2634,0.3995 -4.5276,0.7987 -6.8342,1.2056 z"
       style="fill:#000000;fill-rule:evenodd"
       id="path7494" />
    <path
       d="m 298.1958,348.388 c 1.889,-0.9312 3.7793,-1.8619 5.6475,-2.7832 1.0301,-2.1655 2.0357,-4.2779 3.1378,-6.593 -2.1403,1.061 -4.0547,2.0105 -5.9636,2.9562 -1.0042,2.1264 -1.9936,4.2222 -2.9827,6.3184 0.0536,0.034 0.1072,0.0683 0.161,0.1016 z"
       style="fill:#000000;fill-rule:evenodd"
       id="path7496" />
    <path
       d="m 327.1827,328.624 c 1.2433,-1.7131 2.4855,-3.4258 3.7412,-5.157 -0.0976,-2.308 -0.1953,-4.627 -0.2925,-6.9465 -0.0651,-0.0124 -0.1297,-0.0232 -0.1938,-0.0354 -1.2379,1.7089 -2.4766,3.4172 -3.7039,5.1119 0.0892,2.3629 0.1763,4.6784 0.264,6.9945 0.0612,0.0113 0.1237,0.0216 0.185,0.0325 z"
       style="fill:#000000;fill-rule:evenodd"
       id="path7498" />
    <path
       d="m 315.1931,333.4159 c -0.4738,2.3051 -0.94,4.5771 -1.408,6.8502 0.0623,0.0227 0.1234,0.0455 0.1845,0.0683 1.6079,-1.3522 3.215,-2.7046 4.8271,-4.0605 0.4721,-2.3003 0.9392,-4.5703 1.406,-6.8404 -0.059,-0.0229 -0.1171,-0.0448 -0.1763,-0.0671 -1.5851,1.3281 -3.1708,2.6571 -4.8333,4.0495 z"
       style="fill:#000000;fill-rule:evenodd"
       id="path7500" />
    <path
       d="m 295.602,348.765 c 1.3428,-2.0258 2.597,-3.9174 3.8511,-5.8095 -0.0463,-0.0448 -0.0935,-0.0899 -0.1411,-0.1351 -2.0055,0.647 -4.0101,1.2942 -5.9794,1.9291 -1.3213,1.9794 -2.6039,3.9011 -3.8865,5.8228 0.0357,0.049 0.0703,0.098 0.1059,0.1474 2.0232,-0.6534 4.0478,-1.3079 6.05,-1.9547 z"
       style="fill:#000000;fill-rule:evenodd"
       id="path7502" />
    <path
       d="m 333.298,321.9586 c 0.0419,0.0425 0.0837,0.0839 0.1255,0.1264 2.1117,-0.9491 4.2234,-1.8981 6.3515,-2.853 1.0155,-1.9513 1.9815,-3.807 3.0684,-5.893 -2.3765,1.0668 -4.5152,2.0262 -6.6321,2.9759 -0.9885,1.9148 -1.9508,3.7787 -2.9133,5.6437 z"
       style="fill:#000000;fill-rule:evenodd"
       id="path7504" />
    <path
       d="m 335.6322,315.9864 c -0.4466,-2.3377 -0.8799,-4.6075 -1.3581,-7.1096 -1.0884,2.0773 -2.0612,3.934 -3.0741,5.8648 0.4377,2.2657 0.8859,4.5841 1.3767,7.1267 1.1068,-2.132 2.09,-4.0239 3.0555,-5.8819 z"
       style="fill:#000000;fill-rule:evenodd"
       id="path7506" />
    <path
       d="m 289.5335,351.4478 c 2.4309,0.9027 4.6216,1.7177 6.7894,2.5226 2.0578,-0.6752 4.0567,-1.3316 6.2925,-2.0648 -2.4123,-0.882 -4.589,-1.6768 -6.8467,-2.5019 -1.9705,0.6451 -3.9887,1.3075 -6.2352,2.0441 z"
       style="fill:#000000;fill-rule:evenodd"
       id="path7508" />
    <path
       d="m 337.3182,313.9717 c 0.6009,-1.7698 1.1923,-3.5429 1.8093,-5.307 0.1709,-0.4894 0.1814,-0.9306 -0.007,-1.4265 -0.5009,-1.3169 -0.9464,-2.6555 -1.4245,-3.9818 -0.2173,-0.601 -0.3665,-1.2333 -0.7875,-1.9642 -0.7421,2.1661 -1.4246,4.1554 -2.0969,6.1167 0.782,2.2361 1.5448,4.4159 2.3076,6.5969 0.0666,-0.0116 0.1319,-0.0225 0.1985,-0.0341 z"
       style="fill:#000000;fill-rule:evenodd"
       id="path7510" />
    <path
       d="m 342.6633,299.8032 c -0.457,1.9945 -0.9306,4.0588 -1.4592,6.3641 2.0246,-1.6187 3.8347,-3.0662 5.6685,-4.5324 0.4002,-1.8215 0.802,-3.6436 1.2035,-5.4658 -0.9421,-0.1941 -1.5405,0.2096 -5.4128,3.6341 z"
       style="fill:#000000;fill-rule:evenodd"
       id="path7512" />
    <path
       d="m 276.5223,344.1096 6.556,11.4733 5.8542,-10.771 -5.8542,-5.8542 z"
       style="fill:#000000;fill-rule:evenodd"
       id="path7514" />
    <path
       d="m 254.931,341.9733 c 1.7475,1.2049 3.4436,2.3733 5.1391,3.5433 -0.0264,0.0741 -0.0516,0.1485 -0.0779,0.2229 -2.2738,0.1542 -4.5482,0.3078 -6.8656,0.4643 -1.73,-1.1875 -3.4674,-2.3795 -5.2039,-3.5713 0.003,-0.0717 0.007,-0.1426 0.0102,-0.2129 2.3442,-0.1494 4.6886,-0.2996 6.9981,-0.4463 z"
       style="fill:#000000;fill-rule:evenodd"
       id="path7516" />
    <path
       d="m 260.4838,344.9759 c -1.734,-1.1836 -3.4681,-2.3667 -5.3118,-3.624 -0.615,-2.1603 -1.2525,-4.3998 -1.9358,-6.8003 1.8488,1.2677 3.5785,2.4543 5.3082,3.6408 0.804,2.209 1.4075,4.4517 1.9394,6.7835 z"
       style="fill:#000000;fill-rule:evenodd"
       id="path7518" />
    <path
       d="m 247.7294,336.8011 c 1.5758,1.3876 3.261,2.6249 4.9608,4.2473 -2.5816,-0.0754 -4.8935,-0.1446 -7.1762,-0.2123 -1.6508,-1.3842 -3.2639,-2.7349 -4.876,-4.0869 0.019,-0.0561 0.038,-0.1119 0.0578,-0.1672 2.3392,0.0729 4.6796,0.1451 7.0336,0.2191 z"
       style="fill:#000000;fill-rule:evenodd"
       id="path7520" />
    <path
       d="m 226.9346,308.2026 c 0.6943,2.0384 1.3702,4.0199 2.0452,6.0016 -0.0505,0.0374 -0.101,0.0762 -0.1515,0.1136 -1.9384,-1.2526 -3.8772,-2.5063 -5.8464,-3.7786 -0.686,-1.9944 -1.3722,-3.9931 -2.0591,-5.9915 0.0458,-0.0541 0.0914,-0.1084 0.1372,-0.1625 1.9667,1.2774 3.9324,2.555 5.8746,3.8174 z"
       style="fill:#000000;fill-rule:evenodd"
       id="path7522" />
    <path
       d="m 239.2002,329.0108 c -1.2509,-0.16 -2.3621,-0.4767 -3.4792,-0.7709 -3.292,-0.8652 -3.301,-0.8565 -5.2828,-3.6333 -0.5976,-0.8388 -1.2933,-1.6147 -1.8758,-2.6603 2.3942,0.6705 4.6267,1.2959 6.9246,1.9388 1.2622,1.7426 2.4877,3.4338 3.7132,5.1257 z"
       style="fill:#000000;fill-rule:evenodd"
       id="path7524" />
    <path
       d="m 246.0676,335.1888 c -1.5781,-1.7624 -2.9818,-3.3313 -4.4071,-4.9239 -0.1445,-2.4017 -0.2819,-4.7077 -0.4344,-7.2561 1.5864,1.7762 3.0092,3.3678 4.4142,4.9402 0.1396,2.3704 0.2762,4.6849 0.4273,7.2398 z"
       style="fill:#000000;fill-rule:evenodd"
       id="path7526" />
    <path
       d="m 262.7444,346.2181 c 1.9841,0.8459 3.8479,1.877 5.8656,2.9406 -2.4054,0.5106 -4.6477,0.9853 -7.0014,1.4845 -1.8872,-0.935 -3.7689,-1.8671 -5.6513,-2.8002 0.006,-0.0694 0.0133,-0.1379 0.0201,-0.2075 2.2567,-0.4722 4.5133,-0.9448 6.767,-1.4174 z"
       style="fill:#000000;fill-rule:evenodd"
       id="path7528" />
    <path
       d="m 226.3321,305.7409 c -0.4316,-1.8787 -0.8649,-3.7572 -1.2936,-5.6371 -0.0965,-0.4286 -0.001,-0.8237 0.1894,-1.2222 0.7918,-1.6522 1.5551,-3.3183 2.352,-4.9676 0.1009,-0.2093 0.08,-0.5907 0.4977,-0.5575 0.4812,2.0643 0.9598,4.1209 1.426,6.1211 -1.0099,2.1394 -1.9838,4.2042 -2.959,6.2694 -0.07,-0.002 -0.1414,-0.004 -0.2125,-0.006 z"
       style="fill:#000000;fill-rule:evenodd"
       id="path7530" />
    <path
       d="m 241.1487,330.6879 c 1.3095,1.545 2.758,2.9782 4.0069,4.5897 0.1377,0.0313 0.2192,0.0991 0.1525,0.2752 -0.081,-0.0129 -0.1658,-0.0265 -0.2508,-0.0393 v 0 c -2.2,-0.3701 -4.4008,-0.7388 -6.6395,-1.1143 -1.3999,-1.5783 -2.8059,-3.1616 -4.2117,-4.7454 0.0356,-0.0569 0.072,-0.1136 0.1083,-0.1715 2.2635,0.3995 4.5277,0.7987 6.8343,1.2056 z"
       style="fill:#000000;fill-rule:evenodd"
       id="path7532" />
    <path
       d="m 268.7334,348.388 c -1.889,-0.9312 -3.7793,-1.8619 -5.6475,-2.7832 -1.0301,-2.1655 -2.0357,-4.2779 -3.1379,-6.593 2.1404,1.061 4.0547,2.0105 5.9637,2.9562 1.0042,2.1264 1.9936,4.2222 2.9827,6.3184 -0.0537,0.034 -0.1072,0.0683 -0.161,0.1016 z"
       style="fill:#000000;fill-rule:evenodd"
       id="path7534" />
    <path
       d="m 239.7465,328.624 c -1.2433,-1.7131 -2.4855,-3.4258 -3.7412,-5.157 0.0976,-2.308 0.1953,-4.627 0.2924,-6.9465 0.0652,-0.0124 0.1297,-0.0232 0.1939,-0.0354 1.2379,1.7089 2.4766,3.4172 3.7039,5.1119 -0.0892,2.3629 -0.1763,4.6784 -0.2641,6.9945 -0.0611,0.0113 -0.1237,0.0216 -0.1849,0.0325 z"
       style="fill:#000000;fill-rule:evenodd"
       id="path7536" />
    <path
       d="m 251.736,333.4159 c 0.4738,2.3051 0.9401,4.5771 1.408,6.8502 -0.0622,0.0227 -0.1233,0.0455 -0.1845,0.0683 -1.6078,-1.3522 -3.2149,-2.7046 -4.8271,-4.0605 -0.472,-2.3003 -0.9391,-4.5703 -1.4059,-6.8404 0.059,-0.0229 0.1171,-0.0448 0.1762,-0.0671 1.5852,1.3281 3.1709,2.6571 4.8333,4.0495 z"
       style="fill:#000000;fill-rule:evenodd"
       id="path7538" />
    <path
       d="m 271.3271,348.765 c -1.3427,-2.0258 -2.597,-3.9174 -3.851,-5.8095 0.0463,-0.0448 0.0935,-0.0899 0.141,-0.1351 2.0056,0.647 4.0101,1.2942 5.9795,1.9291 1.3213,1.9794 2.6039,3.9011 3.8865,5.8228 -0.0357,0.049 -0.0703,0.098 -0.1059,0.1474 -2.0232,-0.6534 -4.0478,-1.3079 -6.0501,-1.9547 z"
       style="fill:#000000;fill-rule:evenodd"
       id="path7540" />
    <path
       d="m 233.6312,321.9586 c -0.0419,0.0425 -0.0837,0.0839 -0.1256,0.1264 -2.1117,-0.9491 -4.2233,-1.8981 -6.3514,-2.853 -1.0155,-1.9513 -1.9815,-3.807 -3.0684,-5.893 2.3764,1.0668 4.5152,2.0262 6.6321,2.9759 0.9885,1.9148 1.9508,3.7787 2.9133,5.6437 z"
       style="fill:#000000;fill-rule:evenodd"
       id="path7542" />
    <path
       d="m 231.297,315.9864 c 0.4466,-2.3377 0.8798,-4.6075 1.3581,-7.1096 1.0884,2.0773 2.0611,3.934 3.074,5.8648 -0.4376,2.2657 -0.8858,4.5841 -1.3766,7.1267 -1.1069,-2.132 -2.09,-4.0239 -3.0555,-5.8819 z"
       style="fill:#000000;fill-rule:evenodd"
       id="path7544" />
    <path
       d="m 277.3957,351.4478 c -2.4309,0.9027 -4.6217,1.7177 -6.7894,2.5226 -2.0578,-0.6752 -4.0567,-1.3316 -6.2925,-2.0648 2.4123,-0.882 4.589,-1.6768 6.8467,-2.5019 1.9704,0.6451 3.9886,1.3075 6.2352,2.0441 z"
       style="fill:#000000;fill-rule:evenodd"
       id="path7546" />
    <path
       d="m 229.611,313.9717 c -0.6009,-1.7698 -1.1924,-3.5429 -1.8093,-5.307 -0.171,-0.4894 -0.1815,-0.9306 0.006,-1.4265 0.501,-1.3169 0.9465,-2.6555 1.4246,-3.9818 0.2173,-0.601 0.3664,-1.2333 0.7874,-1.9642 0.7422,2.1661 1.4247,4.1554 2.097,6.1167 -0.782,2.2361 -1.5448,4.4159 -2.3076,6.5969 -0.0666,-0.0116 -0.1319,-0.0225 -0.1985,-0.0341 z"
       style="fill:#000000;fill-rule:evenodd"
       id="path7548" />
    <path
       d="m 224.2659,299.8032 c 0.457,1.9945 0.9306,4.0588 1.4592,6.3641 -2.0247,-1.6187 -3.8347,-3.0662 -5.6685,-4.5324 -0.4002,-1.8215 -0.802,-3.6436 -1.2035,-5.4658 0.9421,-0.1941 1.5404,0.2096 5.4128,3.6341 z"
       style="fill:#000000;fill-rule:evenodd"
       id="path7550" />
    <path
       d="m 344.4096,280.902 c -3.1659,3.686 -7.1122,5.7294 -10.3155,5.9407 2.8161,0.6948 7.343,-0.1976 10.3155,-5.9407 z m 3.6456,-1.3998 v 1.7389 c -5.1855,0 -4.1955,6.7991 -13.6395,6.7991 -9.4466,0 -8.4566,-6.7991 -13.6425,-6.7991 v -1.7389 z"
       style="fill:#000000;fill-rule:evenodd"
       id="path7552" />
    <path
       d="m 334.2441,278.117 h 0.9597 v -37.1099 l 8.1077,37.1099 h 1.0007 l -8.6019,-39.371 h -1.9718 l -8.6019,39.371 h 1.0011 l 8.1064,-37.1086 z"
       style="fill:#000000;fill-rule:evenodd"
       id="path7554" />
    <path
       d="m 282.3734,216.1415 c -0.7133,1.3988 -1.8978,3.2901 -2.0455,5.1205 -0.0967,1.1983 0.2134,2.0943 0.665,2.9213 1.0224,1.8724 1.5475,2.8893 2.2134,5.0248 0.0864,0.2771 0.7007,2.6473 0.4831,2.9648 l -0.1746,-0.0257 c -0.1393,-0.3876 -0.0362,-1.5632 -0.9063,-3.5113 -1.4116,-3.16 -4.5588,-5.4722 -8.3051,-4.9584 -2.1059,0.2889 -4.1097,2.3036 -4.1605,4.6951 -0.0527,2.4796 2.0989,4.1421 4.2716,4.5526 -0.0513,-0.42 -0.3539,-0.7065 -0.2425,-1.7468 0.0592,-0.5527 0.28,-1.0826 0.5428,-1.4485 2.0483,-2.852 6.7068,0.3929 7.003,2.4348 -0.412,0.015 -1.8987,-0.0846 -1.7817,0.9361 0.1031,0.9001 1.5327,0.7286 1.9436,0.7591 -0.0883,1.1305 -1.2326,2.0647 -2.4661,1.5349 -1.6413,-0.7049 -0.3801,-2.6553 -0.3603,-2.9039 -1.6013,-0.21 -2.8921,0.588 -3.1731,2.0268 -0.3385,1.733 0.6486,2.8391 1.8859,3.3328 1.9666,0.7847 4.4187,0.1041 5.3271,-2.0152 0.4887,-1.1402 0.2882,-1.9955 0.5968,-1.9876 0.2995,0.008 0.1035,1.3656 0.0767,1.6633 -0.0423,0.471 0.002,0.3492 -0.2746,0.6026 -0.4567,0.4178 -0.6028,1.1801 -0.8777,1.8042 -0.3051,0.6928 -0.5898,0.7178 -0.762,1.0436 0.8224,0.0183 1.0355,-0.0868 1.6041,-0.3652 0.0925,0.2005 0.1072,0.4822 0.2338,0.7526 l 1.1087,1.8566 c 0.1159,-0.0706 0.6298,-1.0769 0.7299,-1.2478 0.3784,-0.6457 0.5442,-1.2653 0.6127,-1.3616 0.4155,0.2742 0.9734,0.3914 1.5928,0.3599 -0.0714,-0.115 -0.0127,-0.0363 -0.1167,-0.1494 -0.9449,-1.0273 -0.519,-1.1222 -1.1092,-2.2179 -0.4445,-0.8254 -0.5705,-0.386 -0.648,-1.1191 l -0.0108,-1.6166 c 0.2949,0.027 0.2026,0.1011 0.243,0.4518 0.666,5.7841 8.4619,4.4266 7.6022,0.2334 -0.3006,-1.4662 -1.4456,-2.1907 -3.1616,-2.055 -0.002,0.2535 1.2364,2.2076 -0.3541,2.9039 -1.2318,0.5392 -2.4189,-0.4155 -2.4769,-1.535 0.4746,-0.0124 1.9631,0.1536 2.0052,-0.8119 0.044,-1.0099 -1.5312,-0.8518 -1.862,-0.8834 0.1151,-0.7882 1.1004,-1.8555 1.6449,-2.2993 0.6568,-0.5355 1.6932,-1.0696 2.684,-1.2128 1.2883,-0.1861 2.2272,0.384 2.7409,1.1732 0.2638,0.4053 0.4616,0.8965 0.4999,1.4728 0.0669,1.007 -0.1392,1.0751 -0.2776,1.6268 0.9706,-0.0772 2.4441,-0.9768 2.9908,-1.4874 2.8664,-2.6772 0.6235,-7.3177 -2.9571,-7.76 -4.4207,-0.5461 -7.8711,2.7537 -8.8107,6.7373 -0.0762,0.3231 -0.1307,0.5575 -0.1834,0.9355 -0.1085,0.7783 -0.0202,0.7791 -0.2691,0.8228 l -0.0441,-0.404 c 0.2569,-2.7238 1.4343,-5.2299 2.7074,-7.5552 0.478,-0.8728 0.7474,-1.6981 0.6738,-2.8964 -0.1292,-2.1019 -2.2267,-5.4247 -3.2889,-7.578 l -1.1573,-2.3863 z"
       style="fill:#000000;fill-rule:evenodd"
       id="path7556" />
  </g>
  <path
     d="m 37.942609,180.98391 -4.6296,0.0765 1.514,3.3503 z m 2.7683,-1.2515 -8.7775,9.7342 -0.6134,-1.3575 2.6073,-2.8248 -1.8581,-4.111 -3.8432,0.0904 -0.6123,-1.3547 z m -5.0071,13.7772 0.4734,0.7362 c 0.7679,1.194 1.3518,1.9874 1.7518,2.3802 0.3999,0.3929 0.8229,0.6619 1.2733,0.8045 0.5871,0.1863 1.2107,0.2143 1.8666,0.0839 0.6596,-0.1298 1.3269,-0.4116 2.0044,-0.8472 0.6795,-0.4372 1.2118,-0.9239 1.5959,-1.4619 0.3815,-0.5371 0.6123,-1.1146 0.6905,-1.7351 0.0593,-0.4702 -0.009,-0.9742 -0.2032,-1.5154 -0.1942,-0.5411 -0.6673,-1.3963 -1.4219,-2.5696 l -0.4737,-0.7364 z m -1.8394,-0.4694 9.7186,-6.2509 1.2007,1.8669 c 0.8873,1.3793 1.442,2.3967 1.6665,3.0495 0.2225,0.6545 0.3084,1.3005 0.2546,1.9341 -0.072,0.8339 -0.3479,1.6103 -0.8312,2.3278 -0.4833,0.7174 -1.1616,1.3555 -2.0338,1.9165 -0.8677,0.5581 -1.7252,0.9079 -2.5747,1.0508 -0.8496,0.1428 -1.6702,0.072 -2.4619,-0.2129 -0.6004,-0.2163 -1.1441,-0.5488 -1.6328,-0.9998 -0.4875,-0.4547 -1.1001,-1.2523 -1.8371,-2.3987 l -0.2682,-0.4167 z m 9.5632,14.7878 6.4287,-11.2558 0.9199,1.1713 -4.8575,8.1286 9.0388,-2.8026 0.9168,1.1676 z m 10.4806,9.7027 c 0.4566,0.4343 0.9754,0.7642 1.5525,0.9825 0.5788,0.2197 1.1928,0.3206 1.8405,0.3044 0.6395,-0.0158 1.2419,-0.1491 1.8091,-0.4016 0.5672,-0.252 1.0729,-0.6115 1.5146,-1.0761 0.4456,-0.4682 0.7849,-0.9969 1.0139,-1.5857 0.229,-0.5887 0.3339,-1.199 0.3183,-1.8311 -0.0164,-0.6398 -0.1493,-1.2422 -0.3996,-1.8077 -0.2484,-0.5632 -0.6058,-1.067 -1.0664,-1.5052 -0.4646,-0.4416 -0.9873,-0.7753 -1.5665,-0.9992 -0.5791,-0.2234 -1.1834,-0.3226 -1.8153,-0.2993 -0.6437,0.0201 -1.2498,0.157 -1.8207,0.4132 -0.5709,0.2563 -1.08,0.6197 -1.5256,1.088 -0.4416,0.4646 -0.7755,0.9833 -0.9975,1.5568 -0.2217,0.5731 -0.3248,1.1854 -0.3121,1.8365 0.0162,0.6551 0.1477,1.2634 0.3923,1.823 0.2464,0.5615 0.6021,1.0633 1.0625,1.5015 z m 7.7587,0.8005 c -0.5698,0.5993 -1.2175,1.0573 -1.9412,1.3765 -0.7254,0.3212 -1.4947,0.485 -2.3099,0.4938 -0.8153,0.009 -1.6039,-0.1386 -2.3678,-0.4379 -0.764,-0.3028 -1.4395,-0.7336 -2.0308,-1.2963 -0.5913,-0.5624 -1.0536,-1.2138 -1.3901,-1.9579 -0.3333,-0.7441 -0.5184,-1.5228 -0.5502,-2.3375 -0.0317,-0.822 0.0933,-1.6024 0.3739,-2.347 0.2806,-0.7405 0.7041,-1.408 1.2702,-2.0033 0.5698,-0.599 1.2175,-1.0573 1.9468,-1.3788 0.7294,-0.3172 1.5047,-0.483 2.3273,-0.4923 0.8076,-0.009 1.5905,0.1374 2.3505,0.4405 0.7582,0.3013 1.434,0.7319 2.0253,1.2943 0.5953,0.566 1.061,1.2214 1.4035,1.9672 0.341,0.7441 0.5278,1.5205 0.5595,2.3275 0.0318,0.8147 -0.0952,1.5934 -0.3801,2.3338 -0.286,0.7427 -0.7132,1.4145 -1.2869,2.0174 z m 12.7049,6.3635 c -0.0638,-0.8132 -0.2532,-1.527 -0.5681,-2.1376 -0.3158,-0.614 -0.7722,-1.154 -1.3674,-1.6211 -0.4811,-0.3776 -1.0256,-0.6477 -1.6365,-0.8124 -0.6086,-0.1625 -1.2197,-0.2038 -1.8272,-0.1194 -0.6304,0.0876 -1.2067,0.2855 -1.7297,0.5939 -0.5233,0.3087 -0.9958,0.7319 -1.4182,1.2702 -0.3311,0.4215 -0.5862,0.8512 -0.7619,1.2886 -0.1755,0.4374 -0.277,0.8853 -0.3039,1.347 -0.0414,0.8028 0.0927,1.5523 0.4051,2.2493 0.3123,0.6971 0.7767,1.2875 1.3932,1.7714 0.5805,0.4558 1.2132,0.7577 1.8972,0.9074 0.6857,0.1516 1.4202,0.1494 2.2034,-0.006 l -1.1262,1.4344 c -0.7075,-0.0281 -1.387,-0.1613 -2.0376,-0.4011 -0.6505,-0.2401 -1.2534,-0.58 -1.8085,-1.016 -0.4787,-0.3758 -0.8903,-0.8152 -1.2344,-1.3147 -0.3442,-0.4997 -0.6052,-1.0437 -0.7889,-1.6299 -0.3019,-0.9765 -0.3643,-1.9395 -0.1882,-2.8837 0.1777,-0.9459 0.5791,-1.819 1.2092,-2.6218 0.5491,-0.6993 1.1662,-1.2455 1.8505,-1.633 0.6837,-0.3912 1.4473,-0.6307 2.2955,-0.7217 0.8149,-0.0825 1.5905,-0.0147 2.3269,0.2072 0.7385,0.22 1.4392,0.5922 2.1045,1.1143 0.5275,0.4142 0.9728,0.8941 1.3393,1.4389 0.3691,0.5465 0.6614,1.173 0.8793,1.8853 z m 6.5936,3.7505 -3.7083,2.7723 3.1887,1.8298 z m 1.512,-2.6353 -1.4176,13.0303 -1.292,-0.7413 0.46,-3.8166 -3.9129,-2.245 -3.0628,2.3233 -1.2895,-0.7399 z m 14.1044,10.6123 c -0.2549,-0.7747 -0.6081,-1.4233 -1.0588,-1.942 -0.4524,-0.5216 -1.0236,-0.9377 -1.7127,-1.2507 -0.5567,-0.2528 -1.15,-0.386 -1.7824,-0.4011 -0.6299,-0.0136 -1.2333,0.091 -1.8034,0.3172 -0.5916,0.2345 -1.1047,0.5633 -1.5398,0.9868 -0.4351,0.424 -0.7937,0.9473 -1.0766,1.5704 -0.2216,0.4881 -0.3676,0.9657 -0.4345,1.4323 -0.0669,0.4669 -0.0593,0.9258 0.0241,1.3808 0.1499,0.7897 0.4581,1.4859 0.9266,2.0891 0.4686,0.6032 1.0599,1.0667 1.7734,1.3907 0.6721,0.3053 1.3583,0.4484 2.0582,0.4317 0.7024,-0.0153 1.4153,-0.1916 2.139,-0.5287 l -0.7537,1.6606 c -0.6939,0.1406 -1.3859,0.1723 -2.0747,0.0932 -0.6888,-0.0788 -1.3549,-0.2661 -1.9978,-0.5578 -0.5542,-0.2517 -1.0582,-0.5811 -1.5112,-0.9848 -0.4524,-0.4039 -0.8351,-0.8705 -1.1526,-1.3963 -0.5246,-0.8771 -0.8135,-1.798 -0.8662,-2.757 -0.0519,-0.9609 0.1312,-1.9043 0.553,-2.8338 0.3677,-0.8096 0.8377,-1.4865 1.4105,-2.0251 0.5715,-0.5422 1.2566,-0.9558 2.0591,-1.2452 0.7719,-0.2733 1.5418,-0.3915 2.3097,-0.3504 0.7693,0.0386 1.5386,0.2342 2.3085,0.5837 0.6109,0.2772 1.1571,0.6378 1.6424,1.0802 0.4879,0.4434 0.9204,0.9828 1.3014,1.6232 z m 1.3172,9.6559 3.720501,-10.9397 1.3003,0.4422 -3.720201,10.9397 z m 12.238001,-5.7421 -2.7422,3.731 3.583,0.8234 z m 0.6804,-2.9611 2.4321,12.8795 -1.4516,-0.3336 -0.6696,-3.7854 -4.3968,-1.0105 -2.255,3.1135 -1.449,-0.333 z m 11.1412,14.2617 0.8751,-11.522 6.0752,0.4615 -0.0955,1.2569 -4.7055,-0.3572 -0.2509,3.3035 4.7055,0.3575 -0.0966,1.273 -4.7056,-0.3575 -0.3353,4.4153 4.7055,0.3574 -0.0966,1.2731 z m 24.702,-8.6091 c -0.5961,-0.557 -1.2178,-0.9556 -1.8624,-1.1931 -0.6477,-0.2395 -1.3487,-0.3297 -2.1033,-0.2724 -0.6097,0.0465 -1.1939,0.2149 -1.7555,0.506 -0.5587,0.2914 -1.0374,0.6732 -1.4281,1.146 -0.4062,0.4901 -0.6976,1.0253 -0.875,1.6061 -0.1775,0.5808 -0.2401,1.2121 -0.1882,1.8944 0.0405,0.5346 0.1425,1.0236 0.3084,1.4647 0.1658,0.4416 0.3934,0.8402 0.6854,1.199 0.5116,0.62 1.1166,1.082 1.8176,1.3853 0.701,0.3033 1.4422,0.4252 2.224,0.366 0.7359,-0.0561 1.4063,-0.2608 2.0118,-0.612 0.6083,-0.3515 1.1483,-0.8493 1.6208,-1.4927 l 0.1381,1.8181 c -0.5406,0.4572 -1.1319,0.8181 -1.7737,1.0803 -0.642,0.2622 -1.3161,0.4187 -2.0199,0.472 -0.6066,0.0462 -1.2073,0 -1.7983,-0.1361 -0.5911,-0.1361 -1.1512,-0.3611 -1.6824,-0.6693 -0.8821,-0.5162 -1.5783,-1.1846 -2.086,-1.9998 -0.508,-0.8175 -0.8014,-1.7325 -0.8787,-2.7505 -0.0675,-0.8864 0.0187,-1.7059 0.2619,-2.4539 0.2401,-0.7501 0.6415,-1.4426 1.2058,-2.0824 0.5451,-0.6111 1.1631,-1.0851 1.8562,-1.4184 0.693,-0.3365 1.4615,-0.5352 2.3045,-0.5993 0.6687,-0.0507 1.3213,0.002 1.9596,0.1565 0.6409,0.1539 1.2796,0.4187 1.9216,0.7968 z m 11.2105,6.2093 c 0.6207,-0.1091 1.1945,-0.3302 1.7127,-0.6645 0.5207,-0.335 0.9668,-0.7687 1.3388,-1.2991 0.3673,-0.5241 0.6182,-1.0876 0.7523,-1.6937 0.1343,-0.606 0.1457,-1.2262 0.0348,-1.8575 -0.1119,-0.637 -0.3353,-1.2237 -0.6726,-1.7581 -0.3373,-0.534 -0.7659,-0.981 -1.2836,-1.3441 -0.5241,-0.3671 -1.0879,-0.6183 -1.6911,-0.7529 -0.6007,-0.1352 -1.2183,-0.1469 -1.8445,-0.0369 -0.6313,0.1109 -1.2104,0.3331 -1.7345,0.6656 -0.5239,0.3331 -0.963,0.7602 -1.3196,1.2821 -0.3665,0.5295 -0.6165,1.0984 -0.7497,1.7099 -0.1332,0.6114 -0.1437,1.2367 -0.0318,1.8734 0.1109,0.6313 0.3297,1.2081 0.6591,1.7274 0.3291,0.519 0.7602,0.9658 1.2915,1.3428 0.5366,0.3761 1.1038,0.6318 1.6993,0.7679 0.5978,0.1355 1.213,0.1477 1.8389,0.0377 z m 5.2551,-5.7637 c 0.1432,0.8144 0.1267,1.6075 -0.0468,2.3791 -0.1729,0.7744 -0.4983,1.4905 -0.9756,2.1512 -0.4774,0.6611 -1.0647,1.2076 -1.7595,1.6438 -0.6976,0.4346 -1.4457,0.7217 -2.2496,0.8629 -0.8036,0.1415 -1.6021,0.1259 -2.4009,-0.0456 -0.7963,-0.1744 -1.5324,-0.4882 -2.2065,-0.9468 -0.6801,-0.4632 -1.2334,-1.0276 -1.6654,-1.6957 -0.4286,-0.6656 -0.714,-1.4028 -0.856,-2.2121 -0.1432,-0.8144 -0.127,-1.6076 0.0481,-2.3851 0.1783,-0.775 0.5058,-1.4973 0.9871,-2.1643 0.4731,-0.6548 1.0559,-1.1976 1.7512,-1.6285 0.6931,-0.4308 1.4409,-0.7183 2.2448,-0.8594 0.809,-0.1423 1.6129,-0.1276 2.4162,0.0405 0.8008,0.1681 1.5367,0.4791 2.2042,0.9332 0.6741,0.4586 1.2249,1.0236 1.6512,1.6925 0.4269,0.6716 0.7135,1.4145 0.8575,2.2343 z m 5.8731,4.1037 -3.7908,-11.3933 10.9338,6.09 -2.7711,-8.3293 1.2421,-0.4133 3.7908,11.3935 -10.9035,-5.9981 2.7409,8.2372 z m 15.5719,-12.9764 c 0.8166,-0.0176 1.51,0.1363 2.0746,0.4634 0.567,0.326 1.0009,0.8215 1.2991,1.4817 0.4371,0.9672 0.4808,1.8873 0.1321,2.7573 -0.3489,0.8699 -1.0295,1.5352 -2.048,1.9956 -0.8297,0.375 -1.6197,0.4779 -2.3737,0.3072 -0.7518,-0.1717 -1.4012,-0.6023 -1.9528,-1.2928 l 0.8824,-1.0758 c 0.4431,0.5684 0.9142,0.9377 1.4165,1.1067 0.4995,0.1703 1.0156,0.1349 1.5483,-0.1058 0.6284,-0.284 1.0542,-0.695 1.2815,-1.2325 0.2237,-0.5383 0.2047,-1.097 -0.0572,-1.6764 -0.2129,-0.4711 -0.5321,-0.8175 -0.9624,-1.0431 -0.4272,-0.2265 -0.9666,-0.3345 -1.6228,-0.3277 l -1.5285,0.0317 c -0.8317,0.0241 -1.5239,-0.1148 -2.0738,-0.4223 -0.5511,-0.3036 -0.9723,-0.7784 -1.2631,-1.4213 -0.3382,-0.7487 -0.3408,-1.4925 -0.004,-2.2329 0.3365,-0.7401 0.9349,-1.3062 1.7989,-1.6965 0.6307,-0.2852 1.2418,-0.3986 1.8241,-0.3396 0.5859,0.0604 1.1253,0.2925 1.6203,0.7013 l -0.7373,1.1282 c -0.4173,-0.3019 -0.8187,-0.4842 -1.2008,-0.5511 -0.3818,-0.0666 -0.7588,-0.0176 -1.127,0.1488 -0.4712,0.2129 -0.7909,0.5321 -0.9607,0.9545 -0.1698,0.4226 -0.1542,0.856 0.0479,1.3025 0.1687,0.3733 0.4303,0.6451 0.7844,0.8132 0.3523,0.1718 0.8194,0.2503 1.398,0.243 z m 2.5412,-7.0322 1.169,-0.752 3.8906,6.0488 c 0.6324,0.9831 1.3039,1.5693 2.0188,1.7598 0.7149,0.1902 1.5182,0 2.4129,-0.5755 0.8949,-0.5757 1.4011,-1.2277 1.5244,-1.957 0.1231,-0.7294 -0.1315,-1.5837 -0.7639,-2.5671 l -3.8906,-6.0485 1.169,-0.7518 3.8906,6.0486 c 0.845,1.3138 1.1645,2.4982 0.959,3.5526 -0.2078,1.0559 -0.9406,1.9883 -2.2,2.7984 -1.2575,0.8087 -2.4072,1.0874 -3.4543,0.8382 -1.0449,-0.25 -1.9899,-1.0321 -2.8349,-2.3459 z m 18.3402,1.6529 -7.1357,-9.0885 1.0806,-0.8484 6.3272,8.0589 3.4322,-2.6943 0.8081,1.0295 z m 8.757,-7.2233 -7.0837,-7.4029 -2.3587,2.2572 -0.9052,-0.9459 5.7099,-5.4635 0.9051,0.9456 -2.3471,2.2456 7.0838,7.403 z m 8.8478,-10.5259 c 0.4139,-0.4753 0.7206,-1.008 0.9133,-1.5939 0.1939,-0.5882 0.2679,-1.2058 0.2234,-1.8521 -0.0442,-0.6384 -0.2038,-1.2345 -0.4807,-1.7898 -0.277,-0.5559 -0.6582,-1.0449 -1.1416,-1.4658 -0.4875,-0.4247 -1.0306,-0.7404 -1.629,-0.9434 -0.5981,-0.203 -1.2124,-0.2809 -1.8431,-0.2375 -0.6387,0.0445 -1.2345,0.2038 -1.7884,0.4787 -0.5519,0.273 -1.0395,0.652 -1.457,1.1316 -0.4207,0.4833 -0.7313,1.0205 -0.9292,1.6087 -0.1979,0.5885 -0.2704,1.1965 -0.2194,1.8266 0.0482,0.6424 0.2118,1.2419 0.4929,1.8009 0.2812,0.559 0.6662,1.0516 1.154,1.4763 0.4833,0.4209 1.0163,0.7316 1.5988,0.928 0.5825,0.1965 1.1987,0.2724 1.8487,0.2313 0.6537,-0.045 1.2558,-0.2032 1.804,-0.4719 0.5502,-0.271 1.0358,-0.6483 1.4533,-1.1277 z m 0.4589,-7.7864 c 0.6237,0.5431 1.1098,1.1701 1.4602,1.879 0.3529,0.7107 0.5505,1.4718 0.595,2.2859 0.0448,0.8141 -0.0681,1.6084 -0.3334,2.3848 -0.269,0.7764 -0.6698,1.4703 -1.2058,2.0857 -0.5358,0.6157 -1.1662,1.1061 -1.895,1.4749 -0.7288,0.3657 -1.4984,0.5848 -2.3111,0.6522 -0.8198,0.0681 -1.605,-0.0226 -2.361,-0.2701 -0.752,-0.248 -1.4377,-0.6415 -2.0571,-1.1812 -0.6236,-0.5428 -1.11,-1.1699 -1.4632,-1.8842 -0.349,-0.7149 -0.5488,-1.4819 -0.5942,-2.3034 -0.0442,-0.8065 0.0675,-1.5951 0.3368,-2.3675 0.2676,-0.771 0.6681,-1.465 1.2042,-2.0804 0.5394,-0.6193 1.1735,-1.1137 1.9037,-1.4887 0.7282,-0.3731 1.4958,-0.5939 2.3006,-0.6611 0.8124,-0.0674 1.5959,0.0253 2.3482,0.277 0.7543,0.2534 1.4446,0.6505 2.0721,1.1971 z m 7.3741,-0.3348 -9.7407,-6.2164 1.4607,-2.2887 c 0.4158,-0.6517 0.758,-1.1075 1.0236,-1.3632 0.269,-0.2562 0.5649,-0.4444 0.8898,-0.5632 0.4087,-0.1446 0.8549,-0.1729 1.3357,-0.0902 0.4819,0.0808 0.9527,0.2693 1.4136,0.5636 0.7968,0.5085 1.2634,1.1194 1.3927,1.8283 0.1298,0.7124 -0.0794,1.4959 -0.6285,2.3565 l -0.1318,0.2066 7.0189,-0.7546 -0.9389,1.4715 -6.9148,0.591 -0.1043,0.1633 4.6454,2.9647 z m -8.0382,-6.7212 3.2561,2.078 0.5636,-0.8832 c 0.5782,-0.906 0.8495,-1.586 0.811,-2.0418 -0.0357,-0.4542 -0.345,-0.8657 -0.9264,-1.2368 -0.6245,-0.3985 -1.1605,-0.5199 -1.614,-0.3651 -0.451,0.1559 -0.9599,0.6778 -1.5265,1.5659 z m 14.1106,-3.0583 -10.0225,-5.7507 0.6835,-1.1914 10.0227,5.7507 z m -3.2831,-13.1834 3.1104,3.4296 1.52,-3.3477 z m -2.7666,-1.256 13.106,0.1791 -0.6157,1.3564 -3.843,-0.0973 -1.8652,4.108 2.6025,2.8293 -0.6148,1.3538 z"
     style="fill:#000000;fill-rule:evenodd"
     id="path7559" />
  <path
     d="m 46.069209,57.619609 c 0,0 -1.9213,2.2705 -2.071,2.44 -0.214,0.2421 -1.5015,1.6495 -2.0179,2.1847 -0.1956,0.1723 -0.3,0.3393 -0.1789,0.4462 0.0969,0.0856 0.191,0.1255 0.341,-0.044 l 0.1925,-0.218 c 0.3668,-0.3659 1.1443,-0.7571 1.8706,-0.1148 l 10.4609,9.2489 c 0.7504,0.6633 0.4332,1.4618 0.1148,1.8706 l -0.1683,0.2392 c -0.1497,0.1696 -0.0987,0.258 -0.0261,0.3223 0.1451,0.1285 0.2738,-0.017 0.445,-0.2109 0.254,-0.3359 0.8079,-1.0114 1.279,-1.5437 0.428,-0.4844 1.3944,-1.5284 1.8252,-1.9672 0.1956,-0.1721 0.2784,-0.315 0.1789,-0.4462 -0.0969,-0.0856 -0.2123,-0.1012 -0.341,0.0442 l -0.1925,0.218 c -0.3668,0.3657 -1.1659,0.7812 -1.8921,0.1392 l -8.8381,-7.8146 c -1.5741,-1.3915 -2.0668,-1.9565 -0.9275,-3.5379 0.1258,-0.1911 0.5323,-0.6508 0.5323,-0.6508 2.719,-3.0753 7.5022,-3.1179 11.6399,0.4974 4.8217,4.3061 4.0839,10.5571 0.9845,13.7702 -2.562,2.6535 -5.6429,2.8199 -7.8259,0.4583 -0.097,-0.0856 -0.301,-0.0501 -0.1984,0.1268 2.0585,2.9415 5.752,3.058 9.1944,-0.5426 3.852,-4.015 4.5457,-10.6064 -0.8059,-15.338 -4.5037,-3.9821 -10.15,-3.4517 -13.5754,0.4227 z m 33.0832,-7.0844 c -1.1852,0.6883 -2.3936,0.2455 -3.7474,-0.4875 l -13.5292,-7.3749 c -0.2356,-0.1438 -0.4142,-0.004 -0.3311,0.259 0.4351,1.1852 0.7373,2.5149 0.7628,2.4951 l 3.3746,12.2306 c 0.3609,1.5101 0.4748,2.8095 -0.4524,3.7747 -0.1581,0.1647 -0.1329,0.1448 -0.3109,0.2843 -0.1018,0.0796 -0.1639,0.2103 -0.0842,0.3121 0.0995,0.1272 0.2866,0.104 0.5468,-0.1406 0.7801,-0.7339 1.569,-1.3513 1.8238,-1.5506 0.2543,-0.1993 1.2161,-0.9108 1.8411,-1.3181 0.2038,-0.1593 0.3311,-0.2591 0.237,-0.4317 -0.0595,-0.0763 -0.1704,-0.1128 -0.3232,0.007 l -0.2744,0.1738 c -0.4016,0.2732 -0.6653,0.199 -0.953,-0.2736 -0.2897,-0.4229 -0.5468,-1.118 -0.7271,-1.8728 l -0.4836,-1.8244 5.5231,-4.3228 1.6293,0.9277 c 0.6894,0.3563 1.277,0.7926 1.6433,1.1557 0.3642,0.4127 0.3985,0.6667 0.0368,0.9907 -0.3875,0.3444 -0.3787,0.4607 -0.3189,0.5369 0.1449,0.1327 0.2722,0.0332 0.4757,-0.1261 0.5658,-0.4836 1.4678,-1.2717 1.722,-1.4709 0.2291,-0.1792 1.4253,-1.1155 2.2998,-1.6767 0.3251,-0.2135 0.3929,-0.3898 0.2934,-0.5168 -0.1795,-0.229 -0.5015,0.146 -0.6741,0.2401 z m -12.8883,3.356 -3.0118,-9.0397 7.9753,5.1551 z m 30.6831,-12.9442 c -0.8989,0.4436 -1.6997,0.2483 -2.0498,-0.4073 l -6.6115,-12.3721 c -0.472,-0.8836 0.1032,-1.5211 0.5442,-1.7932 l 0.2416,-0.1655 c 0.1709,-0.0916 0.1822,-0.2075 0.1366,-0.2931 -0.0916,-0.171 -0.2625,-0.0794 -0.4904,0.0422 -0.5114,0.3467 -1.4786,0.9366 -2.0489,1.2413 -0.6137,0.2914 -1.4139,0.6457 -1.813,0.8589 -0.2432,0.0935 -0.3991,0.2134 -0.3229,0.356 0.0609,0.114 0.1636,0.169 0.3345,0.0777 l 0.2568,-0.1372 c 0.4711,-0.2152 1.3365,-0.311 1.7932,0.5442 l 6.5809,12.3151 c -4.549,-1.3804 -18.5456,-7.7538 -18.5456,-7.7538 -0.5137,-0.275 -0.7509,0.0348 -0.4085,0.4016 0,0 0.5102,0.6803 1.3306,2.1473 l 6.1086,11.4312 c 0.457,0.8553 -0.1185,1.4928 -0.5442,1.7935 l -0.2566,0.1372 c -0.1709,0.0913 -0.1825,0.2075 -0.1216,0.3215 0.0763,0.1423 0.2628,0.0793 0.4754,-0.0709 0.3838,-0.2418 1.1384,-0.6817 1.7371,-1.0015 0.57,-0.3047 1.5831,-0.8093 2.1398,-1.0703 0.2433,-0.0933 0.3992,-0.2132 0.3229,-0.3558 -0.0609,-0.1139 -0.1635,-0.1689 -0.3345,-0.0777 l -0.2565,0.1372 c -0.4714,0.2152 -1.3365,0.3107 -1.7935,-0.5442 l -5.0726,-9.4927 13.4272,5.1015 c 2.493,0.7566 3.6558,-0.0847 4.4257,-0.496 l 0.9692,-0.5179 c 0.1995,-0.1066 0.2109,-0.2225 0.1652,-0.3081 -0.0173,-0.1007 -0.1199,-0.1557 -0.3194,-0.0491 z m 6.728001,-1.9749 -0.2775,0.0879 c -0.5026,0.125 -1.3709,0.0601 -1.6631,-0.8643 l -4.228201,-13.3753 c -0.3021,-0.9552 0.3807,-1.4762 0.864,-1.663 l 0.2676,-0.1185 c 0.1851,-0.0584 0.2174,-0.1704 0.1882,-0.2628 -0.0584,-0.1848 -0.2435,-0.1264 -0.4901,-0.0485 -0.5658,0.2466 -1.9023,0.737 -2.5188,0.9321 -0.6568,0.1734 -1.5086,0.375 -1.9398,0.5113 -0.2562,0.0471 -0.4317,0.1367 -0.3829,0.2906 0.0388,0.1233 0.1301,0.1961 0.3149,0.1377 l 0.2772,-0.0875 c 0.5029,-0.1253 1.3708,-0.0604 1.6631,0.864 l 4.2284,13.3752 c 0.292301,0.9244 -0.3906,1.4457 -0.8642,1.6631 l -0.2773,0.0876 c -0.1848,0.0584 -0.2174,0.1704 -0.1786,0.2937 0.0488,0.1542 0.2435,0.1264 0.4805,0.0175 0.4215,-0.1669 1.244101,-0.4609 1.891001,-0.6655 0.6165,-0.1948 1.9823,-0.5928 2.5776,-0.747 0.2562,-0.047 0.4314,-0.1366 0.3829,-0.2905 -0.0391,-0.1233 -0.1298,-0.1962 -0.3149,-0.1378 z m 12.6042,-6.404 c -0.0949,0.0218 -0.1431,0.0995 -0.1941,0.3101 -0.0145,0.3682 -0.3124,1.2331 -0.6588,1.7442 -0.4193,0.6273 -0.9255,0.8767 -1.3595,1.0102 -0.661,0.1525 -3.2437,0.7484 -3.3695,0.7776 -1.8244,0.2883 -2.2145,-0.252 -2.6164,-1.8508 l -1.1628,-5.0391 c 0,0 3.244,-0.7486 3.8954,-0.7994 0.9037,-0.1091 1.2115,0.218 1.3858,0.5426 0.1599,0.2616 0.218,0.5136 0.2688,0.7341 0.0292,0.1259 0.0824,0.2132 0.2083,0.184 0.1576,-0.0363 0.0921,-0.3197 0.0558,-0.4771 -0.0436,-0.189 -0.1768,-1.0539 -0.2542,-1.5335 -0.1114,-0.7705 -0.0726,-1.1775 -0.1089,-1.3348 -0.0292,-0.1262 -0.1066,-0.1744 -0.1695,-0.1599 -0.0947,0.0218 -0.1216,0.1939 -0.2741,0.3949 -0.201,0.2783 -0.4771,0.3753 -0.9981,0.5618 -0.4578,0.172 -4.2057,1.0369 -4.2057,1.0369 l -1.1532,-4.9972 c -0.2664,-1.4423 -0.1281,-2.1373 1.4636,-2.571 0,0 1.8266,-0.4215 2.9919,-0.6903 1.4559,-0.303 2.8695,0.9355 3.1638,1.6359 0.1213,0.2376 0.1817,0.3563 0.3004,0.2957 0.0944,-0.0219 0.097,-0.1551 0,-0.4315 -0.098,-0.2812 -0.5207,-1.2509 -0.7219,-1.8346 -0.2469,-0.6397 -0.305,-0.8914 -0.3657,-1.0102 -0.0292,-0.1259 -0.1066,-0.1744 -0.2883,-0.0992 -0.5839,0.2009 -1.1823,0.339 -1.9066,0.5062 0,0 -5.4584,1.359 -5.5842,1.3879 -0.315,0.0728 -2.1878,0.4385 -2.9191,0.5743 -0.2591,0.0266 -0.4411,0.1017 -0.4048,0.2591 0.0289,0.1261 0.1139,0.2058 0.303,0.1624 l 0.2835,-0.0655 c 0.5181,-0.0533 1.3711,0.0488 1.5902,0.9987 l 3.1603,13.6947 c 0.218,0.9445 -0.5042,1.4099 -0.9935,1.5891 l -0.2832,0.0655 c -0.1891,0.0436 -0.2304,0.1528 -0.2015,0.2786 0.0365,0.1573 0.233,0.1452 0.4776,0.0556 0.7169,-0.1984 2.5605,-0.6903 2.8755,-0.7631 0.0629,-0.0145 3.6365,-0.7727 5.6908,-1.2135 v 0 c 1.393,-0.2883 1.8147,-0.6177 1.9236,-1.0077 0.1695,-0.7027 0.3271,-2.4639 0.3223,-2.6286 -0.005,-0.1647 -0.0652,-0.2835 -0.167,-0.2931 z m 14.04,-1.9346 c -0.0963,0.0133 -0.1516,0.0864 -0.2211,0.2916 -0.0467,0.3708 -0.4212,1.2053 -0.8118,1.6832 -0.474,0.5874 -1.0006,0.7903 -1.4445,0.8842 -0.6724,0.0927 -3.2979,0.4547 -3.426,0.4722 -1.8428,0.1236 -2.1827,-0.4495 -2.4406,-2.0832 l -1.7025,-12.3545 c -0.1369,-0.9921 0.6239,-1.3909 1.1319,-1.4935 l 0.2837,-0.0718 c 0.1922,-0.0266 0.2429,-0.1312 0.2299,-0.2273 -0.0266,-0.1922 -0.2188,-0.1655 -0.4751,-0.1304 -0.5992,0.148 -1.9993,0.4062 -2.6399,0.4944 -0.6766,0.0606 -1.55,0.1156 -1.9981,0.1774 -0.2605,0.003 -0.4485,0.0618 -0.4267,0.222 0.0179,0.1281 0.0953,0.2151 0.2875,0.1888 l 0.288,-0.0397 c 0.5167,-0.0386 1.3615,0.1715 1.4938,1.1318 l 1.9151,13.8963 c 0.1324,0.9604 -0.6284,1.3592 -1.1318,1.4939 l -0.2883,0.0397 c -0.1919,0.0263 -0.243,0.1312 -0.2254,0.2593 0.0221,0.1602 0.2188,0.1656 0.4706,0.0984 0.7319,-0.1335 2.6121,-0.4581 2.9324,-0.502 0.0641,-0.009 3.691,-0.4436 5.7764,-0.6982 1.4134,-0.1621 1.863,-0.4524 2.0064,-0.8311 0.2319,-0.6846 0.5471,-2.4248 0.5562,-2.5946 0.01,-0.1644 -0.0397,-0.288 -0.1401,-0.3069 z m 25.6187,-12.1034 c -0.005,0.0317 -3.937,-0.5601 -4.2559,-0.6134 -0.1857,-0.0638 -3.039,-0.639 -3.0708,-0.6444 -5.7385,-0.9595 -8.4127,5.6282 -5.8603,8.7857 0.1065,0.1489 0.2287,0.005 0.1491,-0.106 -2.1005,-3.7046 0.9238,-9.2508 5.9816,-7.7496 0.4992,0.1491 1.0783,0.6063 0.9284,1.5043 l -2.2323,13.3521 c -0.1653,0.9881 -1.0106,1.1418 -1.5256,1.0885 -0.4836,-0.0482 -0.5635,0.0368 -0.5794,0.1324 0,0.1967 0.1593,0.2233 0.4144,0.2658 0.4516,0.0428 1.3178,0.1548 1.9871,0.2668 0.6378,0.1066 2.035,0.373 2.6354,0.5063 0.2494,0.0742 0.4464,0.0745 0.4731,-0.0848 0.0212,-0.1276 0.005,-0.2285 -0.5049,-0.3138 -0.5045,-0.1171 -1.2484,-0.5695 -1.0885,-1.5256 l 1.9454,-11.6359 c 0.3572,-2.1362 0.5701,-3.0178 2.6051,-2.6448 0.2231,0.0372 1.817,0.3036 1.817,0.3036 2.4865,0.4159 4.1649,1.9418 3.7066,4.6834 -0.4746,2.8372 -3.7588,4.0575 -7.3877,3.2216 -0.6639,-0.144 -0.8714,0.3129 -0.1916,0.5576 1.1795,0.394 2.444,0.6709 4.0433,0.7086 2.8378,0.0814 5.1925,-1.8516 5.5763,-4.1468 0.6341,-3.7936 -2.7603,-5.4428 -5.5658,-5.9116 z m 26.9578,17.2808 c 1.9281,-5.0417 -0.8082,-10.1024 -5.8799,-12.0418 -5.0718,-1.9398 -10.5168,-0.008 -12.445,5.0337 -1.9278,5.0417 0.8385,10.1138 5.9103,12.0532 5.072,1.9398 10.4867,-0.003 12.4146,-5.0451 z m -1.9922,-0.7619 c -1.7549,4.5887 -6.1257,6.516 -10.1106,4.9921 -4.0153,-1.5356 -5.9542,-5.876 -4.1996,-10.4647 1.755,-4.589 6.0957,-6.5279 10.1107,-4.9924 3.9852,1.5239 5.9544,5.876 4.1995,10.465 z m 15.982,18.8589 c -0.8311,-0.561 -1.0579,-1.3533 -0.6622,-1.9823 l 7.4713,-11.8726 c 0.5338,-0.8479 1.3725,-0.6639 1.8275,-0.4159 l 0.2633,0.1276 c 0.1642,0.1032 0.2705,0.0556 0.3221,-0.0264 0.1034,-0.1641 -0.0607,-0.2673 -0.2795,-0.405 -0.5545,-0.2724 -1.5461,-0.8201 -2.0934,-1.1645 -0.557,-0.3889 -1.2614,-0.9085 -1.6441,-1.1495 -0.2018,-0.1649 -0.3833,-0.2409 -0.4694,-0.1043 -0.0689,0.1094 -0.0658,0.2259 0.0983,0.3291 l 0.2464,0.1551 c 0.4203,0.3027 0.9323,1.0071 0.4158,1.8275 l -7.4367,11.8179 c -1.0548,-4.6355 -2.4537,-19.9511 -2.4537,-19.9511 -0.0153,-0.5825 -0.4022,-0.6349 -0.551,-0.1559 0,0 -0.3382,0.7801 -1.2059,2.2198 l -6.9032,10.9698 c -0.5162,0.8206 -1.3552,0.6367 -1.8275,0.4159 l -0.246,-0.1548 c -0.1642,-0.1035 -0.2707,-0.0559 -0.3396,0.0536 -0.0859,0.1366 0.0612,0.2676 0.297,0.3778 0.4003,0.2135 1.1563,0.6511 1.7306,1.0126 0.5471,0.3444 1.4873,0.9742 1.9899,1.3286 0.2016,0.1649 0.383,0.2409 0.4689,0.1043 0.0689,-0.1094 0.0657,-0.226 -0.0984,-0.3294 l -0.246,-0.1548 c -0.4204,-0.3027 -0.9321,-1.0069 -0.4159,-1.8275 l 5.7325,-9.1094 2.2212,14.1908 c 0.578,2.5404 1.8848,3.1337 2.6235,3.5986 l 0.9301,0.5853 c 0.1916,0.1205 0.2979,0.0729 0.3495,-0.009 0.0791,-0.0649 0.0759,-0.1815 -0.1154,-0.3019 z m 21.8801,0.6681 c 0.172,-0.2432 0.7117,-1.1466 1.07,-1.6495 0.3768,-0.5729 0.5724,-0.7452 0.6339,-0.8634 0.0612,-0.1182 0.0799,-0.1882 -0.1111,-0.3138 -0.5026,-0.3583 -0.963,-0.7651 -1.5197,-1.2575 -2.634,-2.2424 -4.9314,-4.2307 -7.1433,-6.3155 -0.557,-0.4927 -1.0171,-0.8992 -1.4343,-1.3547 -0.148,-0.1741 -0.2152,-0.1469 -0.3249,-0.0715 -0.11,0.0754 -0.2568,0.2906 -0.7792,0.7348 -0.4794,0.396 -1.3096,1.0423 -1.5302,1.243 -0.2171,0.1964 -0.2783,0.3149 -0.2058,0.379 0.0754,0.11 0.2095,0.0558 0.4051,-0.1168 0.6168,-0.4538 2.4222,-0.8853 3.5575,0.0754 0.896,0.7923 1.55,1.3703 1.55,1.3703 1.1378,1.0062 0.8243,1.1171 -0.0695,2.2251 l -8.7349,9.8796 c -0.6421,0.7263 -1.4403,0.4091 -1.8706,0.1151 l -0.218,-0.1927 c -0.1454,-0.1284 -0.258,-0.0987 -0.3436,-0.002 -0.1068,0.121 0.0168,0.2735 0.2322,0.4206 0.3603,0.2756 1.0111,0.8079 1.544,1.279 0.4842,0.4281 1.5285,1.3944 1.967,1.8252 0.1723,0.1956 0.339,0.3 0.4459,0.1789 0.0856,-0.0969 0.1015,-0.2123 -0.0437,-0.3407 l -0.218,-0.1928 c -0.3659,-0.3668 -0.7571,-1.1443 -0.1151,-1.8705 l 8.735,-9.8796 c 0.9904,-1.0225 1.0621,-1.3476 2.2003,-0.3413 0,0 0.6536,0.5782 1.5256,1.349 1.1165,1.0304 0.9093,2.8746 0.5346,3.5427 -0.1471,0.2155 -0.2087,0.3337 -0.0904,0.3949 0.0969,0.0856 0.1825,-0.0111 0.3512,-0.2506 z m 1.7756,19.4956 c -0.0598,-0.0766 -0.1505,-0.0876 -0.3631,-0.0443 -0.3396,0.1426 -1.2493,0.239 -1.859,0.1418 -0.7461,-0.1143 -1.1863,-0.4672 -1.4907,-0.8036 -0.4184,-0.5344 -2.0517,-2.6215 -2.1317,-2.7233 -1.0338,-1.5307 -0.7095,-2.1127 0.5686,-3.1541 l 4.0726,-3.1873 c 0,0 2.052,2.6218 2.374,3.1904 0.4813,0.7725 0.3155,1.1897 0.0952,1.4851 -0.1695,0.2557 -0.373,0.415 -0.5513,0.5544 -0.1018,0.0797 -0.1582,0.165 -0.0785,0.2668 0.0998,0.1273 0.3288,-0.0522 0.4561,-0.1517 0.1525,-0.1196 0.8796,-0.6066 1.2812,-0.8798 0.6512,-0.4272 1.0361,-0.5644 1.1634,-0.6639 0.1017,-0.0797 0.1128,-0.1704 0.0728,-0.2214 -0.0598,-0.0765 -0.2267,-0.0278 -0.4736,-0.0808 -0.3374,-0.0643 -0.542,-0.2733 -0.9318,-0.6664 -0.3498,-0.3419 -2.7204,-3.3707 -2.7204,-3.3707 l 4.0388,-3.1609 c 1.1937,-0.8521 1.8819,-1.0213 2.9489,0.237 0,0 1.1551,1.4763 1.8924,2.4179 0.8909,1.1909 0.3676,2.9957 -0.1423,3.5589 -0.1638,0.2103 -0.2458,0.3155 -0.1406,0.3974 0.0598,0.0763 0.1814,0.0221 0.3909,-0.1828 0.2132,-0.2078 0.9125,-1.0015 1.3561,-1.4306 0.4751,-0.495 0.6786,-0.6543 0.7605,-0.7594 0.1018,-0.0797 0.1128,-0.1704 -0.0323,-0.3031 -0.4294,-0.4439 -0.8079,-0.9275 -1.2659,-1.5128 0,0 -3.5428,-4.3691 -3.6224,-4.4708 -0.1993,-0.2546 -1.3238,-1.7963 -1.7564,-2.4015 -0.1338,-0.2234 -0.2789,-0.3566 -0.4062,-0.2569 -0.1018,0.0797 -0.138,0.1905 -0.0187,0.3433 l 0.1792,0.2291 c 0.2678,0.4467 0.5368,1.2628 -0.2311,1.8635 l -11.0678,8.6624 c -0.7634,0.5975 -1.4908,0.1405 -1.8601,-0.2268 l -0.1795,-0.2291 c -0.1193,-0.1525 -0.2358,-0.144 -0.3376,-0.0643 -0.1273,0.0995 -0.0329,0.2724 0.152,0.4561 0.4833,0.5655 1.7098,2.0273 1.9088,2.2819 0.04,0.051 2.2402,2.967 3.5096,4.6411 v 0 c 0.8509,1.1399 1.328,1.3825 1.7274,1.3159 0.7084,-0.144 2.3706,-0.7469 2.5177,-0.8212 0.1472,-0.074 0.2291,-0.1792 0.1948,-0.2755 z"
     style="fill:#000000;fill-rule:evenodd"
     id="path7561" />
  <path
     d="m 135.67951,268.87391 c -36.780101,0 -70.079401,-14.9083 -94.182801,-39.0117 -24.1034,-24.1033 -39.0116001,-57.4027 -39.0116001,-94.1827 0,-36.780101 14.9082001,-70.079401 39.0116001,-94.182801 24.1034,-24.1034 57.4027,-39.0116001 94.182801,-39.0116001 36.78,0 70.0794,14.9082001 94.1827,39.0116001 24.1034,24.1034 39.0117,57.4027 39.0117,94.182801 0,36.78 -14.9083,70.0794 -39.0117,94.1827 -24.1033,24.1034 -57.4027,39.0117 -94.1827,39.0117 z m -93.751001,-39.4435 c 23.9925,23.9925 57.1389,38.8327 93.751001,38.8327 36.612,0 69.7584,-14.8402 93.7509,-38.8327 23.9925,-23.9925 38.8327,-57.1389 38.8327,-93.7509 0,-36.612101 -14.8402,-69.758501 -38.8327,-93.751001 -23.9925,-23.9925 -57.1389,-38.8326001 -93.7509,-38.8326001 -36.612101,0 -69.758501,14.8401001 -93.751001,38.8326001 -23.9925,23.9925 -38.8326001,57.1389 -38.8326001,93.751001 0,36.612 14.8401001,69.7584 38.8326001,93.7509 z"
     style="fill:#000000;fill-rule:evenodd"
     id="path7563" />
  <path
     d="M 135.67951,8.8977074e-6 C 98.212609,8.8977074e-6 64.292309,15.186809 39.739409,39.739409 15.186809,64.292309 8.8977074e-6,98.212609 8.8977074e-6,135.67951 c 0,37.4669 15.1868001022926,71.3871 39.7394001022926,95.94 24.5529,24.5526 58.4732,39.7394 95.940101,39.7394 37.4669,0 71.3871,-15.1868 95.94,-39.7394 24.5526,-24.5529 39.7394,-58.4731 39.7394,-95.94 0,-37.466901 -15.1868,-71.387201 -39.7394,-95.940101 C 207.06661,15.186809 173.14641,8.8977074e-6 135.67951,8.8977074e-6 Z M 40.171309,40.171309 c 24.4423,-24.4421 58.2102,-39.5605001 95.508201,-39.5605001 37.298,0 71.0658,15.1184001 95.5082,39.5605001 24.442,24.4423 39.5604,58.2102 39.5604,95.508201 0,37.298 -15.1184,71.0658 -39.5604,95.5082 -24.4424,24.442 -58.2102,39.5604 -95.5082,39.5604 -37.298001,0 -71.065901,-15.1184 -95.508201,-39.5604 -24.4421,-24.4424 -39.5605001,-58.2102 -39.5605001,-95.5082 0,-37.298001 15.1184001,-71.065901 39.5605001,-95.508201 z"
     style="fill:#000000;fill-rule:evenodd"
     id="path7565" />
</svg>
