<?xml version="1.0" encoding="UTF-8" standalone="no"?>
<svg
   version="1.1"
   width="5.4754257in"
   height="1.745494in"
   viewBox="0 0 394.23141 125.67581"
   id="svg1733"
   sodipodi:docname="corel daniel pontes.cdr"
   xmlns:inkscape="http://www.inkscape.org/namespaces/inkscape"
   xmlns:sodipodi="http://sodipodi.sourceforge.net/DTD/sodipodi-0.dtd"
   xmlns="http://www.w3.org/2000/svg"
   xmlns:svg="http://www.w3.org/2000/svg">
  <defs
     id="defs1737" />
  <sodipodi:namedview
     id="namedview1735"
     pagecolor="#ffffff"
     bordercolor="#000000"
     borderopacity="0.25"
     inkscape:showpageshadow="2"
     inkscape:pageopacity="0.0"
     inkscape:pagecheckerboard="0"
     inkscape:deskcolor="#d1d1d1"
     inkscape:document-units="in"
     showgrid="false" />
  <g
     id="Layer1032"
     transform="translate(-86.334295,-220.62649)">
    <g
       id="Layer1033">
      <g
         id="Layer1034">
        <path
           d="m 154.2165,290.5939 c -1.1334,4.2009 -3.2035,8.4234 -6.1242,11.6863 l 3.5992,1.3361 c 6.2494,-5.7532 9.0828,-14.3522 9.0828,-22.703 0,-3.7402 -0.6652,-7.6076 -2.0916,-11.0848 -1.1472,-2.7971 -2.818,-5.2699 -5.0126,-7.4177 -2.4459,-2.3941 -5.5692,-4.2937 -9.3685,-5.699 -3.7993,-1.405 -8.3535,-2.1078 -13.6619,-2.1078 h -13.584 c 1.5091,0.1041 2.7584,0.7287 3.7473,1.8737 0.9885,1.145 1.5614,2.3933 1.5614,3.7472 v 44.4994 c 0,1.353 -0.5075,2.6023 -1.5225,3.7473 -1.0149,1.1449 -2.2771,1.7696 -3.7862,1.8737 h 16.5506 c 5.495,0 10.3696,-1.2531 14.9553,-4.2834 l -2.7514,-1.5611 c -2.2887,1.9386 -4.6817,3.3204 -7.6471,4.015 -2.6154,0.6121 -6.5185,0.8565 -9.0459,-0.3566 -0.6503,-0.3121 -1.1972,-0.7547 -1.6393,-1.327 -0.4424,-0.5724 -0.6637,-1.2752 -0.6637,-2.1079 v -44.4994 c 0,-1.197 0.3516,-2.2119 1.054,-3.0446 0.7026,-0.8326 1.7306,-1.2493 3.0838,-1.2493 4.684,0 8.5874,0.6118 11.7102,1.8348 3.1226,1.2229 5.6472,2.9538 7.5727,5.1914 1.9882,2.3108 3.3296,5.0275 4.0988,7.9633 0.8047,3.0707 1.2099,6.4536 1.2099,10.1488 0,3.0707 -0.4426,6.2459 -1.3271,9.5246 z"
           style="fill:#000000;fill-rule:evenodd"
           id="path1633" />
        <path
           d="m 137.4982,272.1351 c 0.4431,0.7026 0.6649,1.6265 0.6649,2.7715 v 32.3129 c 1.663,-0.424 3.1821,-1.096 4.6523,-2.0435 v -4.7408 c 0.7753,1.197 1.6891,2.1599 2.7416,2.8887 0.305,0.2112 0.6113,0.4081 0.9189,0.5909 0.7529,0.4479 1.5128,0.8103 2.2796,1.0874 0.304,0.1099 0.6023,0.2095 0.8952,0.2985 0.7482,0.2281 1.4606,0.3888 2.1373,0.4823 0.9416,0.13 1.6615,0.1952 2.16,0.1952 3.1017,0 5.8294,-0.5465 8.1835,-1.6396 2.3538,-1.093 4.3339,-2.5113 5.9401,-4.2548 1.6062,-1.7434 2.8248,-3.7341 3.6554,-5.9723 0.8309,-2.2378 1.2463,-4.528 1.2463,-6.87 0,-2.29 -0.4016,-4.5019 -1.2048,-6.636 -0.8032,-2.1337 -2.0216,-4.0465 -3.6554,-5.7379 -1.6339,-1.6917 -3.697,-3.0449 -6.1893,-4.0596 -0.7087,-0.2887 -1.4553,-0.5361 -2.2399,-0.7426 v 1.9226 c 0.097,0.048 0.1928,0.0968 0.2874,0.1471 1.9107,1.0149 3.4201,2.3291 4.5278,3.9426 1.1078,1.6132 1.8831,3.4218 2.3264,5.4256 0.4431,2.004 0.6644,4.0206 0.6644,6.0505 0,2.0297 -0.3322,4.0596 -0.9968,6.0895 -0.6644,2.0297 -1.6203,3.8383 -2.8663,5.4256 -1.2461,1.5876 -2.797,2.8887 -4.6523,3.9036 -1.8554,1.0147 -3.9741,1.5222 -6.3558,1.5222 -0.5015,0 -1.0635,-0.0694 -1.6862,-0.2082 -0.2711,-0.0606 -0.5537,-0.1343 -0.8477,-0.221 -0.8716,-0.2576 -1.7322,-0.6413 -2.5814,-1.1513 -0.0951,-0.0571 -0.1901,-0.1157 -0.2849,-0.176 -0.9413,-0.5985 -1.8139,-1.3922 -2.6169,-2.381 -0.8032,-0.9891 -1.3987,-2.1861 -1.7862,-3.5913 v -21.8593 c 0,-1.145 0.3186,-2.1599 0.9553,-3.0446 0.637,-0.885 1.6754,-1.3273 3.1156,-1.3273 h 5.8153 l 0.1622,0.004 v -1.2526 h -20.3501 c 0.4428,0.0521 0.9827,0.1693 1.6197,0.3513 0.637,0.1821 1.2463,0.4685 1.828,0.8588 0.5814,0.3903 1.0937,0.9368 1.5368,1.6394 z"
           style="fill:#000000;fill-rule:evenodd"
           id="path1635" />
        <path
           d="m 138.1631,319.406 c 0,1.1449 -0.1803,2.0689 -0.5402,2.7715 -0.3599,0.7026 -0.817,1.2621 -1.3708,1.6783 -0.554,0.4165 -1.1633,0.7027 -1.8277,0.8588 -0.6647,0.1562 -1.3017,0.2603 -1.9107,0.3124 h 15.9511 c -0.6647,-0.0521 -1.3293,-0.1562 -1.994,-0.3124 -0.6644,-0.1561 -1.2739,-0.4423 -1.8277,-0.8588 -0.5537,-0.4162 -0.9968,-0.9757 -1.3293,-1.6783 -0.3325,-0.7026 -0.4984,-1.6266 -0.4984,-2.7715 v -9.1784 c -1.5194,0.4934 -3.0705,0.843 -4.6523,1.0663 z"
           style="fill:#000000;fill-rule:evenodd"
           id="path1637" />
      </g>
      <path
         d="m 186.7976,245.4995 c -2.7722,-1.3118 -21.6078,-9.9937 -38.1166,-11.633 0.1213,-0.3717 0.2042,-0.7721 0.2444,-1.1998 18.0614,1.837 38.7217,11.8828 38.7873,11.9142 l 0.3514,0.1693 v 2.4555 c -0.4172,-0.0798 -0.8427,-0.1129 -1.2665,-0.0981 z m -48.8198,-11.5811 c -16.3847,1.76 -34.8754,10.2822 -37.6197,11.5811 v 1.3969 c -0.3902,-0.2962 -0.8168,-0.5424 -1.2664,-0.7317 v -1.4145 l 0.3513,-0.1693 c 0.0647,-0.0312 20.3349,-9.8861 38.2669,-11.8587 0.0517,0.4281 0.1424,0.8268 0.2679,1.1962 z m -37.6197,48.6507 v 5.9578 c 0,18.4237 10.4141,32.8721 26.2057,41.5966 l 17.0115,9.3948 17.0104,-9.3948 c 15.7918,-8.7219 26.2119,-23.1718 26.2119,-41.5951 v -8.0773 c 0.4231,0.0284 0.8487,0.007 1.2665,-0.0613 v 8.1386 c 0,18.8589 -10.6798,33.7219 -26.85,42.6533 l -17.6436,9.7444 c -5.8156,-3.312 -11.7687,-6.5047 -17.6349,-9.7444 -16.1704,-8.9329 -26.8439,-23.7959 -26.8439,-42.6548 v -5.8251 c 0.4259,0.005 0.8515,-0.04 1.2664,-0.1327 z"
         style="fill:#000000;fill-rule:evenodd"
         id="path1640" />
      <g
         id="Layer1035">
        <path
           d="m 91.196,281.4807 c 2.7585,3.2116 6.1969,4.9921 8.9881,5.1762 -2.4538,0.6054 -6.3981,-0.1722 -8.9881,-5.1762 z m -3.1764,-1.2197 v 1.5151 c 4.5181,0 3.6556,5.9242 11.8843,5.9242 8.2309,0 7.3683,-5.9242 11.8868,-5.9242 v -1.5151 z"
           style="fill:#000000;fill-rule:evenodd"
           id="path1642" />
        <path
           d="m 100.3229,279.074 h -0.8362 v -32.3343 l -7.0644,32.3343 h -0.8718 l 7.4949,-34.3044 h 1.7181 l 7.4949,34.3044 h -0.8722 l -7.0633,-32.3331 z"
           style="fill:#000000;fill-rule:evenodd"
           id="path1644" />
      </g>
      <path
         d="m 167.4929,334.444 c -1.5226,1.0498 -3.0005,2.0679 -4.4778,3.0874 0.023,0.0645 0.045,0.1293 0.0679,0.1942 1.9812,0.1343 3.9629,0.2681 5.9821,0.4045 1.5073,-1.0347 3.0211,-2.0733 4.5342,-3.1117 -0.002,-0.0625 -0.006,-0.1242 -0.009,-0.1855 -2.0425,-0.1302 -4.0852,-0.2611 -6.0975,-0.3889 z"
         style="fill:#000000;fill-rule:evenodd"
         id="path1647" />
      <path
         d="m 162.6547,337.0602 c 1.5108,-1.0312 3.0217,-2.0621 4.6282,-3.1576 0.5358,-1.8823 1.0913,-3.8336 1.6867,-5.9252 -1.6109,1.1046 -3.118,2.1384 -4.6252,3.1723 -0.7005,1.9247 -1.2263,3.8788 -1.6897,5.9105 z"
         style="fill:#000000;fill-rule:evenodd"
         id="path1649" />
      <path
         d="m 173.7677,329.9374 c -1.373,1.209 -2.8413,2.2872 -4.3224,3.7007 2.2494,-0.0657 4.2638,-0.1259 6.2528,-0.1849 1.4383,-1.2061 2.8438,-2.383 4.2484,-3.561 -0.0165,-0.0489 -0.033,-0.0975 -0.0503,-0.1457 -2.0382,0.0635 -4.0774,0.1264 -6.1285,0.1909 z"
         style="fill:#000000;fill-rule:evenodd"
         id="path1651" />
      <path
         d="m 191.8865,305.0192 c -0.605,1.7761 -1.1939,3.5025 -1.782,5.2292 0.044,0.0326 0.088,0.0664 0.132,0.099 1.689,-1.0914 3.3782,-2.1838 5.094,-3.2924 0.5978,-1.7377 1.1957,-3.4791 1.7942,-5.2204 -0.0399,-0.0471 -0.0797,-0.0945 -0.1195,-0.1416 -1.7136,1.113 -3.4264,2.2262 -5.1187,3.3262 z"
         style="fill:#000000;fill-rule:evenodd"
         id="path1653" />
      <path
         d="m 181.1994,323.1496 c 1.0898,-0.1394 2.0581,-0.4154 3.0314,-0.6717 2.8684,-0.7538 2.8762,-0.7462 4.6029,-3.1658 0.5208,-0.7308 1.127,-1.4069 1.6345,-2.3179 -2.0861,0.5842 -4.0313,1.1292 -6.0335,1.6893 -1.0997,1.5184 -2.1676,2.9919 -3.2353,4.4661 z"
         style="fill:#000000;fill-rule:evenodd"
         id="path1655" />
      <path
         d="m 175.2156,328.5326 c 1.3751,-1.5356 2.5982,-2.9026 3.84,-4.2903 0.126,-2.0926 0.2457,-4.1018 0.3786,-6.3223 -1.3823,1.5476 -2.622,2.9344 -3.8462,4.3045 -0.1217,2.0654 -0.2407,4.082 -0.3724,6.3081 z"
         style="fill:#000000;fill-rule:evenodd"
         id="path1657" />
      <path
         d="m 160.685,338.1426 c -1.7288,0.737 -3.3528,1.6354 -5.1108,2.5621 2.0958,0.445 4.0496,0.8586 6.1004,1.2935 1.6443,-0.8146 3.2839,-1.6268 4.924,-2.4398 -0.006,-0.0605 -0.0116,-0.1202 -0.0175,-0.1808 -1.9663,-0.4115 -3.9324,-0.8233 -5.8961,-1.235 z"
         style="fill:#000000;fill-rule:evenodd"
         id="path1659" />
      <path
         d="m 192.4115,302.8743 c 0.3761,-1.637 0.7536,-3.2738 1.1272,-4.9118 0.084,-0.3734 9e-4,-0.7177 -0.1651,-1.0648 -0.6899,-1.4397 -1.355,-2.8913 -2.0493,-4.3284 -0.0879,-0.1823 -0.0698,-0.5147 -0.4337,-0.4857 -0.4193,1.7986 -0.8363,3.5906 -1.2425,5.3333 0.8799,1.8641 1.7285,3.6632 2.5783,5.4627 0.061,-0.002 0.1232,-0.003 0.1851,-0.005 z"
         style="fill:#000000;fill-rule:evenodd"
         id="path1661" />
      <path
         d="m 179.5016,324.6109 c -1.141,1.3462 -2.4031,2.5949 -3.4913,3.999 -0.12,0.0273 -0.191,0.0864 -0.1328,0.2399 0.0705,-0.0112 0.1444,-0.0231 0.2185,-0.0343 v 0 c 1.9169,-0.3224 3.8345,-0.6437 5.7851,-0.9709 1.2197,-1.3752 2.4448,-2.7548 3.6697,-4.1347 -0.031,-0.0496 -0.0627,-0.099 -0.0944,-0.1495 -1.9722,0.3481 -3.945,0.696 -5.9548,1.0505 z"
         style="fill:#000000;fill-rule:evenodd"
         id="path1663" />
      <path
         d="m 155.4667,340.0333 c 1.6459,-0.8114 3.2929,-1.6224 4.9207,-2.4251 0.8975,-1.8868 1.7737,-3.7274 2.7341,-5.7446 -1.865,0.9245 -3.533,1.7518 -5.1962,2.5758 -0.875,1.8528 -1.7371,3.6789 -2.5989,5.5053 0.0467,0.0296 0.0934,0.0595 0.1403,0.0886 z"
         style="fill:#000000;fill-rule:evenodd"
         id="path1665" />
      <path
         d="m 180.7233,322.8126 c 1.0834,-1.4926 2.1657,-2.9849 3.2598,-4.4933 -0.085,-2.0111 -0.1701,-4.0316 -0.2548,-6.0526 -0.0568,-0.0108 -0.113,-0.0203 -0.1689,-0.0309 -1.0786,1.489 -2.1579,2.9775 -3.2273,4.4541 0.0777,2.0588 0.1536,4.0764 0.2301,6.0944 0.0533,0.01 0.1078,0.0188 0.1611,0.0283 z"
         style="fill:#000000;fill-rule:evenodd"
         id="path1667" />
      <path
         d="m 170.2767,326.9878 c -0.4128,2.0085 -0.8191,3.9882 -1.2268,5.9687 0.0542,0.0198 0.1075,0.0396 0.1607,0.0595 1.401,-1.1782 2.8013,-2.3565 4.206,-3.538 0.4113,-2.0042 0.8183,-3.9821 1.2249,-5.9601 -0.0513,-0.0199 -0.102,-0.0391 -0.1535,-0.0584 -1.3811,1.1572 -2.7628,2.3151 -4.2113,3.5283 z"
         style="fill:#000000;fill-rule:evenodd"
         id="path1669" />
      <path
         d="m 153.2067,340.3617 c 1.17,-1.7651 2.2628,-3.4133 3.3554,-5.0618 -0.0402,-0.0391 -0.0814,-0.0784 -0.1228,-0.1178 -1.7475,0.5637 -3.4941,1.1277 -5.21,1.6809 -1.1513,1.7246 -2.2688,3.399 -3.3864,5.0734 0.0311,0.0427 0.0613,0.0855 0.0923,0.1285 1.7629,-0.5694 3.5269,-1.1396 5.2715,-1.7032 z"
         style="fill:#000000;fill-rule:evenodd"
         id="path1671" />
      <path
         d="m 186.0517,317.005 c 0.0365,0.037 0.0729,0.073 0.1094,0.1101 1.8399,-0.827 3.6799,-1.6539 5.5341,-2.4859 0.8848,-1.7002 1.7265,-3.3171 2.6736,-5.1346 -2.0707,0.9295 -3.9342,1.7654 -5.7787,2.5929 -0.8613,1.6684 -1.6997,3.2925 -2.5384,4.9175 z"
         style="fill:#000000;fill-rule:evenodd"
         id="path1673" />
      <path
         d="m 188.0855,311.8013 c -0.3891,-2.0369 -0.7666,-4.0146 -1.1833,-6.1947 -0.9484,1.81 -1.7959,3.4277 -2.6785,5.1101 0.3813,1.9741 0.7719,3.9942 1.1995,6.2096 0.9644,-1.8577 1.821,-3.5061 2.6623,-5.125 z"
         style="fill:#000000;fill-rule:evenodd"
         id="path1675" />
      <path
         d="m 147.9191,342.6993 c 2.118,0.7866 4.0269,1.4967 5.9157,2.1979 1.793,-0.5883 3.5346,-1.1602 5.4828,-1.799 -2.1019,-0.7685 -3.9985,-1.4611 -5.9657,-2.1799 -1.7169,0.562 -3.4754,1.1392 -5.4328,1.781 z"
         style="fill:#000000;fill-rule:evenodd"
         id="path1677" />
      <path
         d="m 189.5546,310.0458 c 0.5235,-1.542 1.0389,-3.0869 1.5764,-4.624 0.149,-0.4265 0.1581,-0.8109 -0.006,-1.243 -0.4365,-1.1474 -0.8246,-2.3137 -1.2412,-3.4693 -0.1894,-0.5237 -0.3193,-1.0746 -0.6862,-1.7115 -0.6466,1.8874 -1.2412,3.6207 -1.827,5.3296 0.6813,1.9483 1.3459,3.8476 2.0106,5.748 0.058,-0.0102 0.1149,-0.0197 0.173,-0.0298 z"
         style="fill:#000000;fill-rule:evenodd"
         id="path1679" />
      <path
         d="m 194.2118,297.7007 c -0.3982,1.7378 -0.8109,3.5364 -1.2714,5.5451 1.7641,-1.4104 3.3412,-2.6716 4.939,-3.9492 0.3487,-1.5871 0.6988,-3.1747 1.0486,-4.7624 -0.8208,-0.1691 -1.3422,0.1826 -4.7162,3.1665 z"
         style="fill:#000000;fill-rule:evenodd"
         id="path1681" />
      <path
         d="m 136.5823,336.3054 5.7123,9.9969 5.1008,-9.385 -5.1008,-5.1008 z"
         style="fill:#000000;fill-rule:evenodd"
         id="path1683" />
      <path
         d="m 117.7694,334.444 c 1.5227,1.0498 3.0005,2.0679 4.4778,3.0874 -0.0229,0.0645 -0.0449,0.1293 -0.0678,0.1942 -1.9813,0.1343 -3.9629,0.2681 -5.9821,0.4045 -1.5074,-1.0347 -3.0212,-2.0733 -4.5343,-3.1117 0.003,-0.0625 0.006,-0.1242 0.009,-0.1855 2.0426,-0.1302 4.0853,-0.2611 6.0975,-0.3889 z"
         style="fill:#000000;fill-rule:evenodd"
         id="path1685" />
      <path
         d="m 122.6077,337.0602 c -1.5108,-1.0312 -3.0218,-2.0621 -4.6283,-3.1576 -0.5358,-1.8823 -1.0913,-3.8336 -1.6867,-5.9252 1.611,1.1046 3.1181,2.1384 4.6252,3.1723 0.7005,1.9247 1.2264,3.8788 1.6898,5.9105 z"
         style="fill:#000000;fill-rule:evenodd"
         id="path1687" />
      <path
         d="m 111.4946,329.9374 c 1.373,1.209 2.8413,2.2872 4.3224,3.7007 -2.2494,-0.0657 -4.2638,-0.1259 -6.2527,-0.1849 -1.4383,-1.2061 -2.8438,-2.383 -4.2485,-3.561 0.0165,-0.0489 0.0331,-0.0975 0.0504,-0.1457 2.0381,0.0635 4.0774,0.1264 6.1284,0.1909 z"
         style="fill:#000000;fill-rule:evenodd"
         id="path1689" />
      <path
         d="m 93.3759,305.0192 c 0.6049,1.7761 1.1938,3.5025 1.7819,5.2292 -0.044,0.0326 -0.088,0.0664 -0.132,0.099 -1.6889,-1.0914 -3.3782,-2.1838 -5.094,-3.2924 -0.5978,-1.7377 -1.1957,-3.4791 -1.7941,-5.2204 0.0398,-0.0471 0.0796,-0.0945 0.1195,-0.1416 1.7136,1.113 3.4263,2.2262 5.1187,3.3262 z"
         style="fill:#000000;fill-rule:evenodd"
         id="path1691" />
      <path
         d="m 104.063,323.1496 c -1.0899,-0.1394 -2.0581,-0.4154 -3.0315,-0.6717 -2.8683,-0.7538 -2.8762,-0.7462 -4.6029,-3.1658 -0.5208,-0.7308 -1.1269,-1.4069 -1.6345,-2.3179 2.0861,0.5842 4.0314,1.1292 6.0335,1.6893 1.0998,1.5184 2.1677,2.9919 3.2354,4.4661 z"
         style="fill:#000000;fill-rule:evenodd"
         id="path1693" />
      <path
         d="m 110.0467,328.5326 c -1.3751,-1.5356 -2.5981,-2.9026 -3.84,-4.2903 -0.1259,-2.0926 -0.2456,-4.1018 -0.3785,-6.3223 1.3823,1.5476 2.6219,2.9344 3.8462,4.3045 0.1216,2.0654 0.2407,4.082 0.3723,6.3081 z"
         style="fill:#000000;fill-rule:evenodd"
         id="path1695" />
      <path
         d="m 124.5774,338.1426 c 1.7287,0.737 3.3528,1.6354 5.1108,2.5621 -2.0959,0.445 -4.0497,0.8586 -6.1004,1.2935 -1.6444,-0.8146 -3.2839,-1.6268 -4.9241,-2.4398 0.006,-0.0605 0.0116,-0.1202 0.0175,-0.1808 1.9663,-0.4115 3.9325,-0.8233 5.8962,-1.235 z"
         style="fill:#000000;fill-rule:evenodd"
         id="path1697" />
      <path
         d="m 92.8508,302.8743 c -0.376,-1.637 -0.7536,-3.2738 -1.1271,-4.9118 -0.0841,-0.3734 -9e-4,-0.7177 0.1651,-1.0648 0.6898,-1.4397 1.355,-2.8913 2.0493,-4.3284 0.0879,-0.1823 0.0697,-0.5147 0.4337,-0.4857 0.4192,1.7986 0.8363,3.5906 1.2424,5.3333 -0.8799,1.8641 -1.7285,3.6632 -2.5782,5.4627 -0.061,-0.002 -0.1232,-0.003 -0.1852,-0.005 z"
         style="fill:#000000;fill-rule:evenodd"
         id="path1699" />
      <path
         d="m 105.7607,324.6109 c 1.141,1.3462 2.4031,2.5949 3.4913,3.999 0.12,0.0273 0.191,0.0864 0.1329,0.2399 -0.0706,-0.0112 -0.1445,-0.0231 -0.2185,-0.0343 v 0 c -1.9169,-0.3224 -3.8345,-0.6437 -5.7851,-0.9709 -1.2198,-1.3752 -2.4448,-2.7548 -3.6697,-4.1347 0.031,-0.0496 0.0627,-0.099 0.0944,-0.1495 1.9722,0.3481 3.945,0.696 5.9547,1.0505 z"
         style="fill:#000000;fill-rule:evenodd"
         id="path1701" />
      <path
         d="m 129.7957,340.0333 c -1.6459,-0.8114 -3.293,-1.6224 -4.9208,-2.4251 -0.8975,-1.8868 -1.7737,-3.7274 -2.734,-5.7446 1.8649,0.9245 3.5329,1.7518 5.1962,2.5758 0.875,1.8528 1.737,3.6789 2.5989,5.5053 -0.0468,0.0296 -0.0934,0.0595 -0.1403,0.0886 z"
         style="fill:#000000;fill-rule:evenodd"
         id="path1703" />
      <path
         d="m 104.539,322.8126 c -1.0833,-1.4926 -2.1656,-2.9849 -3.2597,-4.4933 0.085,-2.0111 0.1701,-4.0316 0.2548,-6.0526 0.0568,-0.0108 0.113,-0.0203 0.1689,-0.0309 1.0785,1.489 2.1578,2.9775 3.2272,4.4541 -0.0777,2.0588 -0.1536,4.0764 -0.2301,6.0944 -0.0532,0.01 -0.1077,0.0188 -0.1611,0.0283 z"
         style="fill:#000000;fill-rule:evenodd"
         id="path1705" />
      <path
         d="m 114.9856,326.9878 c 0.4129,2.0085 0.8191,3.9882 1.2269,5.9687 -0.0543,0.0198 -0.1075,0.0396 -0.1608,0.0595 -1.4009,-1.1782 -2.8012,-2.3565 -4.2059,-3.538 -0.4113,-2.0042 -0.8183,-3.9821 -1.225,-5.9601 0.0514,-0.0199 0.102,-0.0391 0.1535,-0.0584 1.3812,1.1572 2.7629,2.3151 4.2113,3.5283 z"
         style="fill:#000000;fill-rule:evenodd"
         id="path1707" />
      <path
         d="m 132.0557,340.3617 c -1.17,-1.7651 -2.2629,-3.4133 -3.3555,-5.0618 0.0403,-0.0391 0.0814,-0.0784 0.1229,-0.1178 1.7475,0.5637 3.494,1.1277 5.21,1.6809 1.1512,1.7246 2.2688,3.399 3.3863,5.0734 -0.0311,0.0427 -0.0612,0.0855 -0.0922,0.1285 -1.7629,-0.5694 -3.5269,-1.1396 -5.2715,-1.7032 z"
         style="fill:#000000;fill-rule:evenodd"
         id="path1709" />
      <path
         d="m 99.2106,317.005 c -0.0364,0.037 -0.0729,0.073 -0.1093,0.1101 -1.84,-0.827 -3.6799,-1.6539 -5.5342,-2.4859 -0.8848,-1.7002 -1.7264,-3.3171 -2.6735,-5.1346 2.0707,0.9295 3.9342,1.7654 5.7787,2.5929 0.8613,1.6684 1.6997,3.2925 2.5383,4.9175 z"
         style="fill:#000000;fill-rule:evenodd"
         id="path1711" />
      <path
         d="m 97.1768,311.8013 c 0.3892,-2.0369 0.7667,-4.0146 1.1834,-6.1947 0.9483,1.81 1.7959,3.4277 2.6784,5.1101 -0.3813,1.9741 -0.7718,3.9942 -1.1994,6.2096 -0.9645,-1.8577 -1.8211,-3.5061 -2.6624,-5.125 z"
         style="fill:#000000;fill-rule:evenodd"
         id="path1713" />
      <path
         d="m 137.3432,342.6993 c -2.118,0.7866 -4.0268,1.4967 -5.9156,2.1979 -1.793,-0.5883 -3.5347,-1.1602 -5.4828,-1.799 2.1019,-0.7685 3.9985,-1.4611 5.9656,-2.1799 1.7169,0.562 3.4754,1.1392 5.4328,1.781 z"
         style="fill:#000000;fill-rule:evenodd"
         id="path1715" />
      <path
         d="m 95.7078,310.0458 c -0.5236,-1.542 -1.0389,-3.0869 -1.5765,-4.624 -0.1489,-0.4265 -0.1581,-0.8109 0.0057,-1.243 0.4364,-1.1474 0.8246,-2.3137 1.2412,-3.4693 0.1894,-0.5237 0.3193,-1.0746 0.6861,-1.7115 0.6467,1.8874 1.2413,3.6207 1.8271,5.3296 -0.6814,1.9483 -1.346,3.8476 -2.0106,5.748 -0.0581,-0.0102 -0.115,-0.0197 -0.173,-0.0298 z"
         style="fill:#000000;fill-rule:evenodd"
         id="path1717" />
      <path
         d="m 91.0506,297.7007 c 0.3982,1.7378 0.8108,3.5364 1.2714,5.5451 -1.7641,-1.4104 -3.3413,-2.6716 -4.9391,-3.9492 -0.3487,-1.5871 -0.6988,-3.1747 -1.0486,-4.7624 0.8209,-0.1691 1.3422,0.1826 4.7163,3.1665 z"
         style="fill:#000000;fill-rule:evenodd"
         id="path1719" />
      <path
         d="m 195.7334,281.2318 c -2.7585,3.2116 -6.1969,4.9921 -8.9881,5.1762 2.4538,0.6054 6.3981,-0.1722 8.9881,-5.1762 z m 3.1764,-1.2197 v 1.5151 c -4.5181,0 -3.6556,5.9242 -11.8842,5.9242 -8.231,0 -7.3684,-5.9242 -11.8869,-5.9242 v -1.5151 z"
         style="fill:#000000;fill-rule:evenodd"
         id="path1721" />
      <path
         d="m 186.8761,278.8051 h 0.8362 v -32.3343 l 7.0643,32.3343 h 0.8719 l -7.4949,-34.3044 h -1.7181 l -7.4949,34.3044 h 0.8722 l 7.0633,-32.3332 z"
         style="fill:#000000;fill-rule:evenodd"
         id="path1723" />
      <path
         d="m 141.6804,224.805 c -0.6215,1.2188 -1.6536,2.8668 -1.7823,4.4616 -0.0842,1.0441 0.186,1.8249 0.5794,2.5454 0.8909,1.6314 1.3484,2.5175 1.9286,4.3782 0.0753,0.2414 0.6105,2.3066 0.4209,2.5832 l -0.1521,-0.0223 c -0.1214,-0.3378 -0.0315,-1.3621 -0.7897,-3.0595 -1.2299,-2.7533 -3.9721,-4.768 -7.2363,-4.3203 -1.8349,0.2517 -3.5808,2.0071 -3.6251,4.0909 -0.0459,2.1605 1.8288,3.6091 3.7219,3.9667 -0.0447,-0.3659 -0.3084,-0.6155 -0.2113,-1.522 0.0516,-0.4815 0.244,-0.9432 0.4729,-1.2621 1.7848,-2.485 5.8438,0.3424 6.1019,2.1215 -0.359,0.0131 -1.6544,-0.0737 -1.5525,0.8156 0.0899,0.7843 1.3355,0.6349 1.6936,0.6615 -0.077,0.985 -1.074,1.7989 -2.1488,1.3373 -1.4301,-0.6142 -0.3312,-2.3135 -0.3139,-2.5302 -1.3953,-0.183 -2.52,0.5123 -2.7648,1.766 -0.295,1.51 0.5651,2.4737 1.6432,2.9039 1.7135,0.6837 3.8501,0.0907 4.6415,-1.7558 0.4259,-0.9936 0.2512,-1.7387 0.52,-1.7319 0.261,0.007 0.0902,1.1899 0.0669,1.4493 -0.0369,0.4104 0.002,0.3043 -0.2392,0.525 -0.398,0.364 -0.5252,1.0282 -0.7648,1.5721 -0.2658,0.6036 -0.5139,0.6254 -0.6639,0.9092 0.7165,0.016 0.9022,-0.0756 1.3976,-0.3182 0.0807,0.1748 0.0934,0.4202 0.2038,0.6558 l 0.966,1.6177 c 0.1009,-0.0616 0.5487,-0.9384 0.6359,-1.0872 0.3297,-0.5627 0.4742,-1.1025 0.5339,-1.1865 0.362,0.239 0.8481,0.3411 1.3879,0.3137 -0.0623,-0.1003 -0.0112,-0.0317 -0.1018,-0.1302 -0.8233,-0.8951 -0.4522,-0.9778 -0.9664,-1.9325 -0.3873,-0.7191 -0.4971,-0.3364 -0.5646,-0.9751 l -0.009,-1.4086 c 0.2569,0.0236 0.1765,0.0882 0.2117,0.3937 0.5803,5.0398 7.3729,3.8569 6.6239,0.2034 -0.2619,-1.2775 -1.2596,-1.9088 -2.7547,-1.7906 -0.002,0.2209 1.0773,1.9236 -0.3086,2.5302 -1.0733,0.4699 -2.1076,-0.362 -2.1581,-1.3375 0.4135,-0.0108 1.7104,0.1339 1.7471,-0.7074 0.0383,-0.8799 -1.3341,-0.7422 -1.6224,-0.7697 0.1004,-0.6867 0.9589,-1.6167 1.4332,-2.0034 0.5723,-0.4666 1.4753,-0.932 2.3386,-1.0567 1.1226,-0.1622 1.9406,0.3346 2.3882,1.0222 0.2299,0.3531 0.4023,0.7812 0.4356,1.2833 0.0583,0.8774 -0.1213,0.9368 -0.2418,1.4175 0.8457,-0.0673 2.1295,-0.8511 2.6059,-1.296 2.4975,-2.3327 0.5433,-6.3761 -2.5766,-6.7615 -3.8518,-0.4758 -6.8582,2.3994 -7.6769,5.8704 -0.0664,0.2815 -0.1139,0.4857 -0.1598,0.8151 -0.0945,0.6781 -0.0176,0.6788 -0.2345,0.7169 l -0.0384,-0.3521 c 0.2239,-2.3732 1.2497,-4.5569 2.359,-6.5829 0.4165,-0.7605 0.6512,-1.4796 0.5871,-2.5237 -0.1126,-1.8314 -1.9402,-4.7265 -2.8657,-6.6028 l -1.0083,-2.0791 z"
         style="fill:#000000;fill-rule:evenodd"
         id="path1725" />
    </g>
    <path
       d="m 232.8202,315.4615 -1.5366,3.5552 h 3.0755 z m 0,-2.5416 4.3957,10.044 h -1.2458 l -1.2552,-2.9605 h -3.7738 l -1.2549,2.9605 h -1.2435 z m 8.9419,8.9626 h 0.7322 c 1.1871,0 2.0095,-0.0519 2.467,-0.1556 0.4572,-0.1035 0.8382,-0.2792 1.1424,-0.5315 0.3965,-0.3291 0.6984,-0.7549 0.9034,-1.2753 0.2072,-0.5227 0.3109,-1.1197 0.3109,-1.7935 0,-0.6758 -0.1015,-1.2705 -0.3064,-1.7844 -0.2052,-0.5114 -0.5071,-0.9349 -0.9079,-1.2705 -0.3042,-0.2548 -0.6897,-0.4348 -1.1583,-0.5431 -0.4685,-0.108 -1.2841,-0.1621 -2.4511,-0.1621 h -0.7322 z m -1.1628,1.0814 v -9.6655 h 1.8567 c 1.372,0 2.3386,0.07 2.8996,0.2075 0.561,0.1394 1.0545,0.3716 1.4757,0.6961 0.5542,0.4281 0.9754,0.9732 1.2617,1.6379 0.286,0.6647 0.428,1.4307 0.428,2.2981 0,0.8628 -0.142,1.6245 -0.4257,2.2867 -0.2841,0.6624 -0.7053,1.2078 -1.264,1.6358 -0.4235,0.3243 -0.9034,0.5565 -1.442,0.6962 -0.5408,0.1375 -1.3787,0.2072 -2.5188,0.2072 h -0.4145 z m 14.7093,0.3785 -4.0847,-10.044 h 1.2458 l 2.8389,7.3944 2.8253,-7.3944 h 1.2413 z m 11.9449,-1.2031 c 0.5273,0 1.0318,-0.0992 1.5072,-0.2996 0.4776,-0.2007 0.9079,-0.4935 1.2909,-0.8765 0.3787,-0.3784 0.667,-0.8064 0.8651,-1.2863 0.1984,-0.4799 0.2977,-0.9893 0.2977,-1.5253 0,-0.5409 -0.0993,-1.0568 -0.2999,-1.5458 -0.2005,-0.4887 -0.4887,-0.9192 -0.8629,-1.2931 -0.3784,-0.3785 -0.8065,-0.667 -1.2841,-0.8652 -0.4754,-0.1984 -0.9825,-0.2973 -1.514,-0.2973 -0.5363,0 -1.0454,0.0989 -1.5253,0.2973 -0.4799,0.1982 -0.9034,0.4867 -1.2731,0.8652 -0.3784,0.3829 -0.6669,0.8155 -0.8651,1.2999 -0.1981,0.4845 -0.2973,0.9981 -0.2973,1.539 0,0.536 0.0969,1.0431 0.2928,1.5185 0.1961,0.4753 0.4867,0.9056 0.8696,1.2931 0.3875,0.3875 0.8178,0.6804 1.2887,0.8788 0.4734,0.1981 0.9779,0.2973 1.5097,0.2973 z m 5.1639,-3.9877 c 0,0.6916 -0.1284,1.3427 -0.383,1.9533 -0.2545,0.6129 -0.6264,1.1557 -1.1154,1.6311 -0.4887,0.4753 -1.0519,0.8404 -1.6875,1.0995 -0.6375,0.2568 -1.2954,0.3853 -1.978,0.3853 -0.6829,0 -1.3382,-0.1285 -1.9715,-0.3853 -0.6307,-0.2591 -1.192,-0.6242 -1.6806,-1.0995 -0.4936,-0.4799 -0.8674,-1.025 -1.1265,-1.6379 -0.2569,-0.6106 -0.3853,-1.2594 -0.3853,-1.9465 0,-0.6917 0.1284,-1.3428 0.3853,-1.9579 0.2591,-0.6129 0.6329,-1.1605 1.1265,-1.6404 0.4844,-0.4709 1.0431,-0.8334 1.6783,-1.088 0.6333,-0.2548 1.2909,-0.3832 1.9738,-0.3832 0.6871,0 1.3473,0.1284 1.9848,0.3832 0.6353,0.2546 1.1965,0.6171 1.6807,1.088 0.489,0.4756 0.8609,1.0207 1.1154,1.6336 0.2546,0.6151 0.383,1.2685 0.383,1.9647 z m 12.1048,-2.5416 c -0.4621,-0.5023 -0.9553,-0.8742 -1.478,-1.1129 -0.525,-0.2412 -1.1041,-0.3605 -1.7371,-0.3605 -0.5114,0 -1.0094,0.1037 -1.4961,0.3109 -0.4844,0.2072 -0.9079,0.4958 -1.264,0.8652 -0.3693,0.3829 -0.6466,0.811 -0.8314,1.2841 -0.1845,0.4733 -0.2769,0.9961 -0.2769,1.5681 0,0.4484 0.0541,0.8631 0.1644,1.2416 0.1105,0.3784 0.2749,0.7253 0.4958,1.0431 0.3875,0.5496 0.8628,0.9731 1.4283,1.2708 0.5656,0.2973 1.1761,0.4459 1.8318,0.4459 0.6171,0 1.1894,-0.1284 1.7167,-0.383 0.5295,-0.2545 1.0116,-0.6352 1.4465,-1.1424 v 1.5254 c -0.4799,0.3469 -0.9958,0.6106 -1.548,0.7886 -0.5519,0.178 -1.1242,0.2659 -1.7144,0.2659 -0.5091,0 -1.0072,-0.0766 -1.4916,-0.2277 -0.4845,-0.1508 -0.9371,-0.3739 -1.3606,-0.6644 -0.703,-0.4867 -1.2416,-1.0882 -1.6132,-1.8003 -0.3719,-0.7143 -0.5587,-1.4961 -0.5587,-2.3499 0,-0.7435 0.1238,-1.4216 0.3738,-2.0299 0.2478,-0.6106 0.6265,-1.1625 1.1379,-1.6605 0.4932,-0.4754 1.0386,-0.8314 1.6378,-1.0656 0.5993,-0.2367 1.2527,-0.3537 1.9602,-0.3537 0.561,0 1.1018,0.0856 1.6245,0.2545 0.525,0.169 1.0409,0.4303 1.5523,0.7863 z m 7.3981,-0.1485 -1.5366,3.5552 h 3.0755 z m 0,-2.5416 4.3957,10.044 h -1.2458 l -1.2552,-2.9605 h -3.7738 l -1.2549,2.9605 h -1.2435 z m 15.3831,2.6901 c -0.4621,-0.5023 -0.9553,-0.8742 -1.478,-1.1129 -0.525,-0.2412 -1.1041,-0.3605 -1.7371,-0.3605 -0.5114,0 -1.0094,0.1037 -1.4961,0.3109 -0.4845,0.2072 -0.9079,0.4958 -1.264,0.8652 -0.3693,0.3829 -0.6466,0.811 -0.8314,1.2841 -0.1845,0.4733 -0.2769,0.9961 -0.2769,1.5681 0,0.4484 0.0541,0.8631 0.1644,1.2416 0.1105,0.3784 0.2749,0.7253 0.4958,1.0431 0.3875,0.5496 0.8628,0.9731 1.4283,1.2708 0.5656,0.2973 1.1761,0.4459 1.8318,0.4459 0.6171,0 1.1894,-0.1284 1.7167,-0.383 0.5295,-0.2545 1.0116,-0.6352 1.4465,-1.1424 v 1.5254 c -0.4799,0.3469 -0.9958,0.6106 -1.548,0.7886 -0.5519,0.178 -1.1243,0.2659 -1.7144,0.2659 -0.5091,0 -1.0072,-0.0766 -1.4916,-0.2277 -0.4845,-0.1508 -0.9371,-0.3739 -1.3606,-0.6644 -0.703,-0.4867 -1.2416,-1.0882 -1.6132,-1.8003 -0.3719,-0.7143 -0.5587,-1.4961 -0.5587,-2.3499 0,-0.7435 0.1238,-1.4216 0.3738,-2.0299 0.2478,-0.6106 0.6265,-1.1625 1.1379,-1.6605 0.4932,-0.4754 1.0386,-0.8314 1.6378,-1.0656 0.5993,-0.2367 1.2527,-0.3537 1.9602,-0.3537 0.561,0 1.1018,0.0856 1.6245,0.2545 0.525,0.169 1.0409,0.4303 1.5523,0.7863 z m 4.3588,7.3539 v -9.6655 h 1.1492 v 9.6655 z m 8.9215,-7.5024 -1.5367,3.5552 h 3.0756 z m 0,-2.5416 4.3957,10.044 h -1.2459 l -1.2551,-2.9605 h -3.7738 l -1.2549,2.9605 h -1.2436 z m 11.7669,10.044 v -9.6655 h 5.0964 v 1.0545 h -3.9473 v 2.7711 h 3.9473 v 1.0681 h -3.9473 v 3.704 h 3.9473 v 1.0678 z M 353.605,315.61 c -0.462,-0.5023 -0.9552,-0.8742 -1.4779,-1.1129 -0.525,-0.2412 -1.1041,-0.3605 -1.7371,-0.3605 -0.5114,0 -1.0094,0.1037 -1.4961,0.3109 -0.4845,0.2072 -0.908,0.4958 -1.264,0.8652 -0.3694,0.3829 -0.6466,0.811 -0.8314,1.2841 -0.1845,0.4733 -0.277,0.9961 -0.277,1.5681 0,0.4484 0.0542,0.8631 0.1645,1.2416 0.1105,0.3784 0.2749,0.7253 0.4957,1.0431 0.3875,0.5496 0.8629,0.9731 1.4284,1.2708 0.5655,0.2973 1.1761,0.4459 1.8318,0.4459 0.6171,0 1.1894,-0.1284 1.7166,-0.383 0.5295,-0.2545 1.0117,-0.6352 1.4465,-1.1424 v 1.5254 c -0.4799,0.3469 -0.9958,0.6106 -1.548,0.7886 -0.5519,0.178 -1.1242,0.2659 -1.7144,0.2659 -0.5091,0 -1.0071,-0.0766 -1.4915,-0.2277 -0.4845,-0.1508 -0.9372,-0.3739 -1.3607,-0.6644 -0.703,-0.4867 -1.2415,-1.0882 -1.6132,-1.8003 -0.3719,-0.7143 -0.5587,-1.4961 -0.5587,-2.3499 0,-0.7435 0.1239,-1.4216 0.3739,-2.0299 0.2478,-0.6106 0.6265,-1.1625 1.1378,-1.6605 0.4933,-0.4754 1.0387,-0.8314 1.6379,-1.0656 0.5992,-0.2367 1.2526,-0.3537 1.9602,-0.3537 0.5609,0 1.1018,0.0856 1.6245,0.2545 0.525,0.169 1.0409,0.4303 1.5522,0.7863 z m 9.0633,6.5293 c 0.5272,0 1.0318,-0.0992 1.5071,-0.2996 0.4777,-0.2007 0.908,-0.4935 1.2909,-0.8765 0.3787,-0.3784 0.667,-0.8064 0.8652,-1.2863 0.1984,-0.4799 0.2976,-0.9893 0.2976,-1.5253 0,-0.5409 -0.0992,-1.0568 -0.2999,-1.5458 -0.2004,-0.4887 -0.4887,-0.9192 -0.8629,-1.2931 -0.3784,-0.3785 -0.8064,-0.667 -1.2841,-0.8652 -0.4753,-0.1984 -0.9825,-0.2973 -1.5139,-0.2973 -0.5364,0 -1.0455,0.0989 -1.5254,0.2973 -0.4799,0.1982 -0.9034,0.4867 -1.273,0.8652 -0.3784,0.3829 -0.667,0.8155 -0.8651,1.2999 -0.1982,0.4845 -0.2974,0.9981 -0.2974,1.539 0,0.536 0.0969,1.0431 0.2928,1.5185 0.1962,0.4753 0.4867,0.9056 0.8697,1.2931 0.3875,0.3875 0.8178,0.6804 1.2886,0.8788 0.4734,0.1981 0.978,0.2973 1.5098,0.2973 z m 5.1638,-3.9877 c 0,0.6916 -0.1284,1.3427 -0.3829,1.9533 -0.2546,0.6129 -0.6265,1.1557 -1.1155,1.6311 -0.4887,0.4753 -1.0519,0.8404 -1.6874,1.0995 -0.6375,0.2568 -1.2955,0.3853 -1.978,0.3853 -0.6829,0 -1.3383,-0.1285 -1.9715,-0.3853 -0.6308,-0.2591 -1.192,-0.6242 -1.6807,-1.0995 -0.4935,-0.4799 -0.8674,-1.025 -1.1265,-1.6379 -0.2568,-0.6106 -0.3852,-1.2594 -0.3852,-1.9465 0,-0.6917 0.1284,-1.3428 0.3852,-1.9579 0.2591,-0.6129 0.633,-1.1605 1.1265,-1.6404 0.4844,-0.4709 1.0431,-0.8334 1.6784,-1.088 0.6332,-0.2548 1.2909,-0.3832 1.9738,-0.3832 0.6871,0 1.3473,0.1284 1.9848,0.3832 0.6352,0.2546 1.1965,0.6171 1.6806,1.088 0.489,0.4756 0.8609,1.0207 1.1155,1.6336 0.2545,0.6151 0.3829,1.2685 0.3829,1.9647 z m 4.2642,4.8123 v -10.044 l 7.0702,7.721 v -7.3425 h 1.0947 v 10.044 l -7.0699,-7.64 v 7.2615 z m 16.3766,-5.3645 c 0.6287,0.2681 1.1041,0.6242 1.4218,1.0681 0.3198,0.4439 0.4799,0.9711 0.4799,1.5772 0,0.8875 -0.284,1.6041 -0.8495,2.1469 -0.5655,0.5431 -1.3136,0.8155 -2.2484,0.8155 -0.7617,0 -1.3992,-0.1936 -1.9151,-0.5833 -0.5137,-0.3898 -0.8606,-0.942 -1.0432,-1.6583 l 1.0432,-0.5159 c 0.142,0.5856 0.3739,1.0295 0.6984,1.3314 0.322,0.3019 0.7277,0.453 1.2167,0.453 0.5768,0 1.0431,-0.1667 1.4014,-0.498 0.3558,-0.3334 0.5338,-0.766 0.5338,-1.2977 0,-0.4326 -0.1239,-0.8065 -0.3739,-1.1265 -0.2478,-0.3201 -0.6219,-0.5879 -1.1242,-0.8087 l -1.1761,-0.5026 c -0.6421,-0.2682 -1.122,-0.6129 -1.4352,-1.0364 -0.3155,-0.4212 -0.4731,-0.9283 -0.4731,-1.5185 0,-0.6871 0.2545,-1.2549 0.7659,-1.7033 0.5114,-0.4485 1.1625,-0.6735 1.9556,-0.6735 0.5791,0 1.0837,0.1238 1.5072,0.3693 0.4261,0.2478 0.7571,0.6106 0.9938,1.0928 l -0.951,0.606 c -0.214,-0.3739 -0.4572,-0.6511 -0.7254,-0.8337 -0.2681,-0.1825 -0.5723,-0.2746 -0.9102,-0.2746 -0.4325,0 -0.7863,0.1329 -1.0613,0.3963 -0.2746,0.2636 -0.4121,0.5995 -0.4121,1.0094 0,0.3424 0.106,0.64 0.3177,0.89 0.2095,0.2523 0.5383,0.4731 0.9822,0.6668 z m 5.7739,-4.301 h 1.1625 v 6.0156 c 0,0.9777 0.2075,1.6943 0.6241,2.1515 0.4167,0.4576 1.0681,0.6874 1.9579,0.6874 0.8901,0 1.5412,-0.2298 1.9579,-0.6874 0.4167,-0.4572 0.6242,-1.1738 0.6242,-2.1515 v -6.0156 h 1.1625 v 6.0156 c 0,1.3068 -0.311,2.2845 -0.9329,2.9333 -0.6239,0.6492 -1.5613,0.9735 -2.8139,0.9735 -1.2504,0 -2.1855,-0.3243 -2.8094,-0.9735 -0.622,-0.6488 -0.9329,-1.6265 -0.9329,-2.9333 z m 12.1589,9.6655 v -9.6655 h 1.1492 v 8.5705 h 3.6499 v 1.095 z m 9.498,0 v -8.5705 h -2.7306 v -1.095 h 6.6104 v 1.095 h -2.717 v 8.5705 z m 11.5237,-0.8246 c 0.5273,0 1.0318,-0.0992 1.5072,-0.2996 0.4777,-0.2007 0.908,-0.4935 1.2909,-0.8765 0.3787,-0.3784 0.667,-0.8064 0.8651,-1.2863 0.1985,-0.4799 0.2977,-0.9893 0.2977,-1.5253 0,-0.5409 -0.0992,-1.0568 -0.2999,-1.5458 -0.2004,-0.4887 -0.4887,-0.9192 -0.8629,-1.2931 -0.3784,-0.3785 -0.8064,-0.667 -1.2841,-0.8652 -0.4754,-0.1984 -0.9825,-0.2973 -1.514,-0.2973 -0.5363,0 -1.0454,0.0989 -1.5253,0.2973 -0.4799,0.1982 -0.9034,0.4867 -1.273,0.8652 -0.3785,0.3829 -0.667,0.8155 -0.8652,1.2999 -0.1981,0.4845 -0.2973,0.9981 -0.2973,1.539 0,0.536 0.0969,1.0431 0.2928,1.5185 0.1962,0.4753 0.4867,0.9056 0.8697,1.2931 0.3875,0.3875 0.8178,0.6804 1.2886,0.8788 0.4734,0.1981 0.978,0.2973 1.5097,0.2973 z m 5.1639,-3.9877 c 0,0.6916 -0.1284,1.3427 -0.383,1.9533 -0.2545,0.6129 -0.6264,1.1557 -1.1154,1.6311 -0.4887,0.4753 -1.0519,0.8404 -1.6875,1.0995 -0.6375,0.2568 -1.2954,0.3853 -1.978,0.3853 -0.6828,0 -1.3382,-0.1285 -1.9715,-0.3853 -0.6307,-0.2591 -1.1919,-0.6242 -1.6806,-1.0995 -0.4935,-0.4799 -0.8674,-1.025 -1.1265,-1.6379 -0.2568,-0.6106 -0.3852,-1.2594 -0.3852,-1.9465 0,-0.6917 0.1284,-1.3428 0.3852,-1.9579 0.2591,-0.6129 0.633,-1.1605 1.1265,-1.6404 0.4844,-0.4709 1.0431,-0.8334 1.6784,-1.088 0.6332,-0.2548 1.2909,-0.3832 1.9737,-0.3832 0.6872,0 1.3473,0.1284 1.9849,0.3832 0.6352,0.2546 1.1965,0.6171 1.6806,1.088 0.489,0.4756 0.8609,1.0207 1.1154,1.6336 0.2546,0.6151 0.383,1.2685 0.383,1.9647 z m 4.2642,4.8123 v -9.6655 h 2.2711 c 0.6466,0 1.1219,0.0362 1.4216,0.1082 0.3018,0.0743 0.5677,0.1982 0.7976,0.3739 0.286,0.2231 0.5069,0.525 0.6648,0.9015 0.1598,0.3761 0.2386,0.7928 0.2386,1.2503 0,0.7909 -0.2208,1.3947 -0.6624,1.8046 -0.4437,0.4124 -1.0905,0.6173 -1.9443,0.6173 h -0.205 l 3.6905,4.6097 h -1.4599 l -3.5283,-4.6097 h -0.1624 v 4.6097 z m 1.1219,-8.6921 v 3.2309 h 0.8765 c 0.8991,0 1.5007,-0.1151 1.8048,-0.347 0.3042,-0.2298 0.455,-0.6332 0.455,-1.2101 0,-0.6193 -0.1554,-1.0519 -0.4686,-1.3022 -0.3132,-0.2477 -0.9102,-0.3716 -1.7912,-0.3716 z m 8.5093,8.6921 v -9.6655 h 1.1492 v 9.6655 z m 8.9215,-7.5024 -1.5366,3.5552 h 3.0755 z m 0,-2.5416 4.3957,10.044 h -1.2458 l -1.2552,-2.9605 h -3.7738 l -1.2549,2.9605 h -1.2435 z"
       style="fill:#000000;fill-rule:evenodd"
       id="path1728" />
    <path
       d="m 220.4589,280.1684 c 0,0 -4.2335,0.0922 -4.5556,0.0922 -0.4603,0 -3.1753,-0.046 -4.2335,-0.0922 -0.3682,-0.0459 -0.6443,0 -0.6443,0.2302 0,0.184 0.0459,0.322 0.3679,0.322 h 0.4144 c 0.7362,0.0462 1.8865,0.5063 1.8865,1.8868 v 19.8796 c 0,1.4264 -1.1503,1.8406 -1.8865,1.8868 l -0.4144,0.0459 c -0.322,0 -0.3679,0.138 -0.3679,0.2761 0,0.2761 0.2761,0.2761 0.6443,0.2761 0.5981,-0.0459 1.8405,-0.0922 2.8531,-0.0922 0.9201,0 2.9449,0.0463 3.8194,0.0922 0.3679,0.0459 0.5981,0 0.644,-0.2302 0,-0.184 -0.0918,-0.322 -0.3679,-0.322 h -0.4142 c -0.7364,-0.0459 -1.9329,-0.5063 -1.9329,-1.8868 v -16.7964 c 0,-2.9911 0.138,-4.0495 2.8993,-4.3256 0.322,-0.046 1.1965,-0.046 1.1965,-0.046 5.8441,0 10.3997,5.0619 10.4459,12.8849 -0.0462,9.2036 -7.4089,14.3113 -13.7594,14.0352 -5.2458,-0.2299 -8.329,-3.359 -7.8689,-7.9149 0,-0.184 -0.2299,-0.3682 -0.3221,-0.0921 -1.1965,4.97 2.1629,9.0195 9.2495,9.2956 7.9149,0.3221 15.5999,-5.1539 15.5999,-15.3238 0,-8.5592 -5.8901,-14.0814 -13.2531,-14.0814 z m 38.9767,24.1592 c -1.9327,-0.2685 -2.899,-1.8253 -3.7732,-3.8347 l -8.6976,-20.1402 c -0.138,-0.3682 -0.46,-0.3682 -0.5981,0 -0.5522,1.7101 -1.3805,3.4665 -1.3345,3.4665 l -6.9486,16.6737 c -0.9204,2.0094 -1.9327,3.5662 -3.8194,3.8347 -0.322,0.0462 -0.2761,0.0462 -0.5984,0.0462 -0.184,0 -0.3679,0.0918 -0.3679,0.2761 0,0.2298 0.2298,0.3679 0.7361,0.322 1.5185,-0.1381 2.9452,-0.1381 3.4053,-0.1381 0.4603,0 2.1628,0.0459 3.2213,0.1381 0.3682,0 0.5981,0 0.6443,-0.2761 0,-0.1381 -0.0921,-0.2761 -0.3682,-0.2761 l -0.4601,-0.0459 c -0.6902,-0.0462 -0.9204,-0.3606 -0.8283,-1.143 0.0459,-0.7285 0.368,-1.7334 0.8283,-2.7379 l 1.0582,-2.4696 h 9.9859 l 1.0122,2.4696 c 0.4604,1.0045 0.7365,2.0094 0.8286,2.7379 0.0459,0.7824 -0.1381,1.0968 -0.8286,1.143 -0.7361,0.0459 -0.8283,0.1839 -0.8283,0.322 0.0462,0.2761 0.2761,0.2761 0.6443,0.2761 1.0585,-0.0459 2.761,-0.1381 3.2213,-0.1381 0.4142,0 2.577,0 4.0496,0.1381 0.5522,0.0459 0.7821,-0.0922 0.7821,-0.322 0,-0.4142 -0.6902,-0.2761 -0.9663,-0.3223 z m -17.3946,-7.5467 4.5559,-12.7775 4.4175,12.7775 z m 46.0174,7.6388 c -1.4267,-0.0459 -2.3009,-0.8283 -2.3009,-1.8868 v -19.9715 c 0,-1.4266 1.1503,-1.8408 1.8868,-1.8867 l 0.4141,-0.0459 c 0.2761,0 0.3682,-0.1381 0.3682,-0.2761 0,-0.2761 -0.2761,-0.2761 -0.6443,-0.2761 -0.8745,0.0918 -2.4849,0.184 -3.4053,0.184 -0.9663,-0.046 -2.2087,-0.1381 -2.853,-0.1381 -0.3683,-0.0459 -0.6443,0 -0.6443,0.2302 0,0.184 0.0921,0.322 0.3682,0.322 h 0.4141 c 0.7362,0.0459 1.8868,0.5063 1.8868,1.8867 v 19.8794 c -4.7861,-4.7857 -18.0848,-22.1802 -18.0848,-22.1802 -0.4603,-0.6903 -0.9666,-0.4601 -0.7824,0.2301 0,0 0.184,1.1963 0.2299,3.5893 v 18.4529 c 0,1.3805 -1.1503,1.7947 -1.8864,1.8868 h -0.4145 c -0.276,0 -0.3679,0.138 -0.3679,0.322 0,0.2302 0.2761,0.2761 0.6443,0.2302 0.6441,-0.0459 1.8865,-0.0922 2.8531,-0.0922 0.9201,0 2.5308,0.0463 3.4053,0.0922 0.3679,0.0459 0.644,0 0.644,-0.2302 0,-0.184 -0.0919,-0.322 -0.368,-0.322 h -0.4141 c -0.7364,-0.0459 -1.8867,-0.5063 -1.8867,-1.8868 v -15.3238 l 13.437,15.416 c 2.6229,2.6229 4.6477,2.3468 5.8901,2.3468 h 1.5648 c 0.322,0 0.4141,-0.1381 0.4141,-0.2761 0.0459,-0.1381 -0.0462,-0.2761 -0.3682,-0.2761 z m 9.8016,0 h -0.4141 c -0.7365,-0.0459 -1.8868,-0.5063 -1.8868,-1.8868 v -19.9715 c 0,-1.4266 1.1503,-1.8408 1.8868,-1.8867 l 0.4141,-0.0459 c 0.2761,0 0.368,-0.1381 0.368,-0.2761 0,-0.2761 -0.2761,-0.2761 -0.6441,-0.2761 -0.8745,0.0918 -2.8992,0.184 -3.8194,0.184 -0.9666,-0.046 -2.209,-0.1381 -2.853,-0.1381 -0.3683,-0.0459 -0.6444,0 -0.6444,0.2302 0,0.184 0.0919,0.322 0.368,0.322 h 0.4144 c 0.7362,0.0459 1.8865,0.5063 1.8865,1.8867 v 19.9715 c 0,1.3805 -1.1503,1.7947 -1.8865,1.8868 h -0.4144 c -0.2761,0 -0.368,0.138 -0.368,0.322 0,0.2302 0.2761,0.2761 0.6444,0.2302 0.644,-0.0459 1.8864,-0.0922 2.853,-0.0922 0.9202,0 2.9449,0.0463 3.8194,0.0922 0.368,0.0459 0.6441,0 0.6441,-0.2302 0,-0.184 -0.0919,-0.322 -0.368,-0.322 z m 19.5112,-4.2336 c -0.1381,0 -0.2299,0.0919 -0.368,0.368 -0.138,0.5062 -0.8285,1.6106 -1.4726,2.209 -0.7823,0.7362 -1.5647,0.9204 -2.209,0.9663 -0.9663,0 -4.7398,0 -4.9238,0 -2.6229,-0.1842 -2.9911,-1.0584 -3.037,-3.4052 v -7.3627 c 0,0 4.7398,0 5.6599,0.138 1.2887,0.1381 1.6107,0.6903 1.7487,1.1962 0.1381,0.4142 0.1381,0.7824 0.1381,1.1044 0,0.1843 0.0462,0.3223 0.2301,0.3223 0.2302,0 0.2302,-0.4141 0.2302,-0.6443 0,-0.2761 0.0919,-1.5185 0.1381,-2.2087 0.0918,-1.1044 0.2761,-1.6566 0.2761,-1.8868 0,-0.184 -0.0922,-0.2761 -0.1843,-0.2761 -0.138,0 -0.2299,0.2302 -0.506,0.4601 -0.3682,0.3223 -0.7823,0.3682 -1.5647,0.4603 -0.6902,0.0919 -6.1662,0.0919 -6.1662,0.0919 v -7.3012 c 0.0918,-2.0863 0.506,-3.0067 2.8531,-3.0986 0,0 2.6688,0 4.3715,0 2.117,0.0459 3.6814,2.2164 3.8654,3.2825 0.0921,0.3683 0.138,0.5522 0.3223,0.5063 0.138,0 0.1839,-0.1842 0.138,-0.5984 -0.0459,-0.4218 -0.3223,-1.902 -0.4141,-2.7762 -0.1381,-0.9664 -0.1381,-1.3346 -0.1843,-1.5186 0,-0.1842 -0.0918,-0.276 -0.3679,-0.2301 -0.8745,0.0921 -1.7487,0.0921 -2.8072,0.0921 0,0 -8.007,0.138 -8.191,0.138 -0.4603,0 -3.1753,-0.0921 -4.2335,-0.138 -0.3682,-0.0462 -0.6443,0 -0.6443,0.2299 0,0.1842 0.0918,0.3223 0.3679,0.3223 h 0.4144 c 0.7362,0.0918 1.8865,0.506 1.8865,1.8944 v 20.0097 c 0,1.3805 -1.1503,1.7947 -1.8865,1.8868 h -0.4144 c -0.2761,0 -0.3679,0.138 -0.3679,0.322 0,0.2302 0.2761,0.2761 0.6443,0.2302 1.0582,-0.0459 3.7732,-0.1381 4.2335,-0.1381 0.0919,0 5.292,0.0922 8.2832,0.1381 v 0 c 2.0248,0.0459 2.715,-0.2761 2.9911,-0.7824 0.46,-0.9204 1.2424,-3.3131 1.2883,-3.5433 0.0462,-0.2302 0,-0.4141 -0.138,-0.4601 z m 19.7413,-0.008 c -0.138,0 -0.2299,0.0918 -0.3679,0.3679 -0.1381,0.5139 -0.8286,1.6183 -1.4726,2.2167 -0.7824,0.7362 -1.5648,0.9204 -2.2091,0.9663 -0.9663,0 -4.7398,0 -4.9238,0 -2.6228,-0.1842 -2.9911,-1.0584 -3.037,-3.4129 V 282.561 c 0,-1.4266 1.1503,-1.8408 1.8868,-1.8867 l 0.4141,-0.0459 c 0.2761,0 0.3679,-0.1381 0.3679,-0.2761 0,-0.2761 -0.2761,-0.2761 -0.644,-0.2761 -0.8745,0.0918 -2.8993,0.184 -3.8194,0.184 -0.9666,-0.046 -2.209,-0.1381 -2.8531,-0.1381 -0.3682,-0.0459 -0.6443,0 -0.6443,0.2302 0,0.184 0.0919,0.322 0.3679,0.322 h 0.4145 c 0.7361,0.0459 1.8864,0.5063 1.8864,1.8867 v 19.9715 c 0,1.3805 -1.1503,1.7947 -1.8864,1.8868 h -0.4145 c -0.276,0 -0.3679,0.138 -0.3679,0.322 0,0.2302 0.2761,0.2761 0.6443,0.2302 1.0582,-0.0459 3.7732,-0.1381 4.2336,-0.1381 0.0918,0 5.292,0.0922 8.2831,0.1381 2.0248,0.0459 2.715,-0.2761 2.9911,-0.7824 0.4601,-0.9204 1.2424,-3.3131 1.2884,-3.5509 0.0462,-0.2302 0,-0.4142 -0.1381,-0.4601 z m 31.7979,-20.056 c 0,0.0459 -5.6602,0.1381 -6.1203,0.1381 -0.2761,-0.046 -4.4178,-0.184 -4.4637,-0.184 -8.2831,0 -10.4918,9.8782 -6.1665,13.7132 0.1843,0.1839 0.3223,-0.0462 0.1843,-0.1843 -3.8194,-4.7089 -0.8745,-13.2069 6.5803,-12.2865 0.7365,0.0919 1.6566,0.5981 1.6566,1.8944 v 19.2736 c 0,1.4264 -1.1503,1.8406 -1.8865,1.8868 -0.6905,0.0459 -0.7823,0.1839 -0.7823,0.322 0.0459,0.2761 0.2761,0.2761 0.6443,0.2761 0.644,-0.0459 1.8865,-0.0922 2.8531,-0.0922 0.9201,0 2.9449,0.0463 3.8194,0.0922 0.3679,0.0459 0.644,0 0.644,-0.2302 0,-0.184 -0.0459,-0.322 -0.7821,-0.322 -0.7364,-0.0459 -1.8867,-0.5063 -1.8867,-1.8868 v -16.7964 c 0,-3.0829 0.0918,-4.3716 3.037,-4.3256 0.3223,0 2.6229,0 2.6229,0 3.5895,0 6.3046,1.7487 6.3046,5.7061 0,4.0958 -4.3257,6.5806 -9.6177,6.2586 -0.9663,-0.0462 -1.1503,0.6441 -0.1381,0.8283 1.7487,0.2761 3.5893,0.3679 5.8442,0.0459 4.0037,-0.5522 6.8568,-3.8194 6.8568,-7.1328 0,-5.476 -5.154,-6.9945 -9.2036,-6.9945 z m 39.8971,12.4708 c 0,-7.685 -6.2124,-13.023 -13.9433,-13.023 -7.731,0 -13.9893,5.338 -13.9893,13.023 0,7.6847 6.2583,13.0229 13.9893,13.0229 7.7309,0 13.9433,-5.3382 13.9433,-13.0229 z m -3.037,0 c 0,6.9944 -4.832,11.7805 -10.9063,11.7805 -6.1203,0 -10.9061,-4.7861 -10.9061,-11.7805 0,-6.9948 4.7858,-11.7805 10.9061,-11.7805 6.0743,0 10.9063,4.7857 10.9063,11.7805 z m 31.1536,11.8264 c -1.4267,-0.0459 -2.3009,-0.8283 -2.3009,-1.8868 V 282.561 c 0,-1.4266 1.1503,-1.8408 1.8867,-1.8867 l 0.4142,-0.0459 c 0.2761,0 0.3682,-0.1381 0.3682,-0.2761 0,-0.2761 -0.2761,-0.2761 -0.6443,-0.2761 -0.8745,0.0918 -2.4849,0.184 -3.4053,0.184 -0.9663,-0.046 -2.2087,-0.1381 -2.8531,-0.1381 -0.3682,-0.0459 -0.6443,0 -0.6443,0.2302 0,0.184 0.0921,0.322 0.3682,0.322 h 0.4142 c 0.7361,0.0459 1.8867,0.5063 1.8867,1.8867 v 19.8794 c -4.786,-4.7857 -18.0847,-22.1802 -18.0847,-22.1802 -0.4604,-0.6903 -0.9666,-0.4601 -0.7824,0.2301 0,0 0.184,1.1963 0.2299,3.5893 v 18.4529 c 0,1.3805 -1.1503,1.7947 -1.8865,1.8868 h -0.4144 c -0.2761,0 -0.3679,0.138 -0.3679,0.322 0,0.2302 0.2761,0.2761 0.6443,0.2302 0.644,-0.0459 1.8864,-0.0922 2.8531,-0.0922 0.9201,0 2.5307,0.0463 3.4052,0.0922 0.368,0.0459 0.6441,0 0.6441,-0.2302 0,-0.184 -0.0919,-0.322 -0.368,-0.322 h -0.4141 c -0.7365,-0.0459 -1.8868,-0.5063 -1.8868,-1.8868 v -15.3238 l 13.4371,15.416 c 2.6229,2.6229 4.6477,2.3468 5.8901,2.3468 h 1.5647 c 0.3221,0 0.4142,-0.1381 0.4142,-0.2761 0.0459,-0.1381 -0.0462,-0.2761 -0.3682,-0.2761 z m 23.8368,-19.9179 c -0.0459,-0.4218 -0.322,-1.8944 -0.4142,-2.7686 -0.138,-0.9664 -0.0921,-1.3346 -0.138,-1.5186 -0.0459,-0.1842 -0.0921,-0.276 -0.4141,-0.2301 -0.8743,0.0921 -1.7487,0.0921 -2.8072,0.0921 -4.9238,0.0918 -9.2494,0.138 -13.5751,0 -1.0582,0 -1.9327,0 -2.8069,-0.0921 -0.3223,-0.0459 -0.3682,0.0459 -0.4141,0.2301 -0.0462,0.184 0,0.5522 -0.1381,1.5186 -0.138,0.8742 -0.4141,2.3468 -0.4603,2.7686 -0.0459,0.4141 0,0.5984 0.138,0.5984 0.1843,0.0459 0.2761,-0.1381 0.3223,-0.5063 0.2299,-1.0661 1.7484,-3.229 3.8654,-3.2749 1.7027,0 2.9451,0 2.9451,0 2.1629,0 1.9327,0.4142 2.0248,2.439 v 18.7749 c 0,1.3805 -1.1505,1.7947 -1.8867,1.8868 h -0.4141 c -0.2761,0 -0.3683,0.138 -0.3683,0.322 0,0.2302 0.2761,0.2761 0.6443,0.2302 0.6441,-0.0459 1.8406,-0.0922 2.8531,-0.0922 0.9204,0 2.9449,0.0463 3.8194,0.0922 0.3682,0.0459 0.6443,0 0.6443,-0.2302 0,-0.184 -0.0921,-0.322 -0.3682,-0.322 h -0.4141 c -0.7365,-0.0459 -1.8868,-0.5063 -1.8868,-1.8868 V 283.758 c 0.0922,-2.0248 -0.138,-2.439 2.0248,-2.439 0,0 1.2424,0 2.899,0 2.1628,0.0459 3.6814,2.2088 3.9115,3.2749 0.046,0.3682 0.0922,0.5522 0.2761,0.5063 0.184,0 0.184,-0.1843 0.1381,-0.5984 z m 19.6495,15.6843 c -0.1381,0 -0.2299,0.0919 -0.368,0.368 -0.138,0.5062 -0.8285,1.6106 -1.4726,2.209 -0.7823,0.7362 -1.5647,0.9204 -2.209,0.9663 -0.9663,0 -4.7398,0 -4.9238,0 -2.6229,-0.1842 -2.9911,-1.0584 -3.037,-3.4052 v -7.3627 c 0,0 4.7398,0 5.6599,0.138 1.2886,0.1381 1.6107,0.6903 1.7487,1.1962 0.138,0.4142 0.138,0.7824 0.138,1.1044 0,0.1843 0.0463,0.3223 0.2302,0.3223 0.2302,0 0.2302,-0.4141 0.2302,-0.6443 0,-0.2761 0.0918,-1.5185 0.138,-2.2087 0.0919,-1.1044 0.2761,-1.6566 0.2761,-1.8868 0,-0.184 -0.0921,-0.2761 -0.1842,-0.2761 -0.1381,0 -0.2299,0.2302 -0.506,0.4601 -0.3682,0.3223 -0.7824,0.3682 -1.5647,0.4603 -0.6903,0.0919 -6.1662,0.0919 -6.1662,0.0919 v -7.3012 c 0.0918,-2.0863 0.506,-3.0067 2.853,-3.0986 0,0 2.6689,0 4.3716,0 2.1169,0.0459 3.6814,2.2164 3.8654,3.2825 0.0921,0.3683 0.138,0.5522 0.3223,0.5063 0.138,0 0.1839,-0.1842 0.138,-0.5984 -0.0459,-0.4218 -0.3223,-1.902 -0.4141,-2.7762 -0.1381,-0.9664 -0.1381,-1.3346 -0.1843,-1.5186 0,-0.1842 -0.0918,-0.276 -0.3679,-0.2301 -0.8745,0.0921 -1.7487,0.0921 -2.8072,0.0921 0,0 -8.007,0.138 -8.191,0.138 -0.4603,0 -3.1753,-0.0921 -4.2335,-0.138 -0.3682,-0.0462 -0.6443,0 -0.6443,0.2299 0,0.1842 0.0918,0.3223 0.3679,0.3223 h 0.4144 c 0.7362,0.0918 1.8865,0.506 1.8865,1.8944 v 20.0097 c 0,1.3805 -1.1503,1.7947 -1.8865,1.8868 h -0.4144 c -0.2761,0 -0.3679,0.138 -0.3679,0.322 0,0.2302 0.2761,0.2761 0.6443,0.2302 1.0582,-0.0459 3.7732,-0.1381 4.2335,-0.1381 0.0919,0 5.292,0.0922 8.2831,0.1381 v 0 c 2.0248,0.0459 2.7151,-0.2761 2.9912,-0.7824 0.46,-0.9204 1.2424,-3.3131 1.2883,-3.5433 0.0462,-0.2302 0,-0.4141 -0.138,-0.4601 z"
       style="fill:#000000;fill-rule:evenodd"
       id="path1730" />
  </g>
</svg>
